<?xml version="1.0" standalone="no"?>
<!DOCTYPE svg PUBLIC "-//W3C//DTD SVG 20010904//EN"
 "http://www.w3.org/TR/2001/REC-SVG-20010904/DTD/svg10.dtd">
<svg version="1.0" xmlns="http://www.w3.org/2000/svg"
 width="1024.000000pt" height="1024.000000pt" viewBox="0 0 1024.000000 1024.000000"
 preserveAspectRatio="xMidYMid meet">
<metadata>
Created by potrace 1.11, written by Peter Selinger 2001-2013
</metadata>
<g transform="translate(0.000000,1024.000000) scale(0.100000,-0.100000)"
fill="#000000" stroke="none">
<path d="M4823 9533 c5 -4 44 -8 87 -8 44 -1 78 1 75 3 -3 3 -42 7 -87 9 -45
2 -79 1 -75 -4z"/>
<path d="M5011 9519 c12 -22 29 -25 29 -5 0 9 13 16 33 19 19 2 11 4 -20 4
-48 0 -51 -1 -42 -18z"/>
<path d="M5115 9530 c-3 -5 -1 -10 4 -10 6 0 11 5 11 10 0 6 -2 10 -4 10 -3 0
-8 -4 -11 -10z"/>
<path d="M5168 9523 c12 -2 30 -2 40 0 9 3 -1 5 -23 4 -22 0 -30 -2 -17 -4z"/>
<path d="M4711 9504 c0 -11 3 -14 6 -6 3 7 2 16 -1 19 -3 4 -6 -2 -5 -13z"/>
<path d="M4630 9490 c-8 -5 -10 -10 -5 -10 6 0 17 5 25 10 8 5 11 10 5 10 -5
0 -17 -5 -25 -10z"/>
<path d="M5370 9485 c-17 -21 -5 -31 15 -12 8 9 15 18 15 21 0 11 -18 6 -30
-9z"/>
<path d="M4558 9483 c6 -2 18 -2 25 0 6 3 1 5 -13 5 -14 0 -19 -2 -12 -5z"/>
<path d="M4680 9480 c-13 -8 -12 -10 3 -10 9 0 17 5 17 10 0 12 -1 12 -20 0z"/>
<path d="M4880 9480 c0 -5 5 -10 10 -10 6 0 10 5 10 10 0 6 -4 10 -10 10 -5 0
-10 -4 -10 -10z"/>
<path d="M5416 9475 c-15 -11 -16 -15 -5 -15 8 0 20 5 26 11 11 11 15 9 72
-20 14 -8 21 -8 16 -2 -3 6 1 11 9 11 9 0 16 -4 16 -10 0 -5 5 -10 11 -10 28
0 -16 30 -45 31 -30 1 -30 1 -6 9 20 6 15 8 -25 9 -29 0 -58 -6 -69 -14z"/>
<path d="M4503 9464 c-7 -3 -13 -15 -13 -27 0 -20 0 -20 15 -1 14 18 14 18 15
-5 0 -17 4 -22 16 -17 9 3 22 6 30 6 12 0 12 3 2 14 -7 8 -14 10 -16 5 -5 -14
-19 -11 -26 6 -4 12 4 15 47 14 41 -1 47 -3 27 -9 l-25 -8 28 -1 c16 -1 34 5
42 12 10 11 0 13 -59 14 -39 1 -77 -1 -83 -3z"/>
<path d="M4905 9450 c-17 -18 -17 -20 -2 -14 9 3 17 10 17 14 0 5 10 11 23 13
21 4 21 4 1 6 -11 0 -29 -8 -39 -19z"/>
<path d="M5000 9455 c0 -8 7 -15 16 -15 14 0 14 3 4 15 -7 8 -14 15 -16 15 -2
0 -4 -7 -4 -15z"/>
<path d="M5583 9455 c16 -15 99 -17 90 -2 -3 5 -16 6 -28 3 -13 -3 -27 -2 -30
4 -3 5 -15 10 -26 10 -18 0 -19 -2 -6 -15z"/>
<path d="M4460 9449 c0 -5 5 -7 10 -4 6 3 10 8 10 11 0 2 -4 4 -10 4 -5 0 -10
-5 -10 -11z"/>
<path d="M5433 9452 c-6 -4 7 -8 30 -8 30 -1 36 1 22 7 -26 10 -37 10 -52 1z"/>
<path d="M4824 9417 c-3 -11 -1 -24 6 -31 10 -8 11 -6 5 13 -6 19 -4 23 8 18
8 -3 17 0 20 6 3 7 -3 13 -14 13 -11 0 -22 -9 -25 -19z"/>
<path d="M4985 9430 c3 -5 14 -10 23 -10 15 0 15 2 2 10 -20 13 -33 13 -25 0z"/>
<path d="M4450 9421 c0 -6 5 -13 10 -16 6 -3 10 1 10 9 0 9 -4 16 -10 16 -5 0
-10 -4 -10 -9z"/>
<path d="M4590 9420 c0 -5 4 -10 9 -10 6 0 13 5 16 10 3 6 -1 10 -9 10 -9 0
-16 -4 -16 -10z"/>
<path d="M5058 9423 c-16 -2 -28 -8 -28 -13 0 -4 10 -6 22 -2 15 3 19 2 14 -7
-7 -11 11 -10 105 4 20 3 26 0 25 -13 -1 -13 8 -17 44 -19 l45 -2 -45 11 c-45
11 -45 12 -15 19 l30 7 -30 2 c-16 2 -57 3 -90 2 -59 0 -60 0 -15 7 l45 8 -40
0 c-22 0 -52 -2 -67 -4z"/>
<path d="M5233 9423 c9 -2 25 -2 35 0 9 3 1 5 -18 5 -19 0 -27 -2 -17 -5z"/>
<path d="M5690 9420 c0 -5 5 -10 10 -10 6 0 10 5 10 10 0 6 -4 10 -10 10 -5 0
-10 -4 -10 -10z"/>
<path d="M4490 9403 c8 -3 19 -11 23 -17 6 -7 7 -6 4 4 -2 8 -12 16 -23 17
-13 2 -15 1 -4 -4z"/>
<path d="M4540 9395 c0 -8 2 -15 4 -15 2 0 6 7 10 15 3 8 1 15 -4 15 -6 0 -10
-7 -10 -15z"/>
<path d="M4632 9390 c0 -14 2 -19 5 -12 2 6 2 18 0 25 -3 6 -5 1 -5 -13z"/>
<path d="M4908 9386 c-13 -14 -30 -36 -38 -51 -13 -24 -12 -28 16 -50 16 -13
34 -24 41 -25 6 0 13 -4 15 -8 3 -8 95 -72 103 -72 9 0 51 -49 68 -78 17 -30
17 -31 -2 -42 -15 -7 -67 -7 -181 1 -140 9 -164 9 -191 -5 -18 -9 -35 -16 -39
-16 -8 0 -40 67 -40 85 0 8 -9 30 -20 50 -11 20 -20 42 -20 49 0 7 -9 36 -21
64 -18 42 -26 51 -52 55 -18 3 -50 10 -72 17 -70 20 -85 23 -85 13 0 -5 14
-17 31 -27 90 -53 160 -160 248 -378 18 -46 1 -41 -144 45 -49 29 -101 63
-113 75 -7 6 -20 12 -28 12 -8 0 -14 5 -14 10 0 6 -6 10 -14 10 -8 0 -16 4
-18 9 -1 4 -13 12 -25 15 -19 6 -23 3 -23 -13 0 -24 -16 -37 -23 -19 -3 7 -6
3 -6 -10 -1 -12 6 -39 14 -59 20 -46 20 -143 1 -143 -17 0 -43 38 -52 76 -12
49 -73 124 -100 124 -23 0 -34 -23 -15 -34 5 -3 21 -31 35 -62 l27 -57 -26
-38 c-14 -21 -25 -50 -25 -63 0 -46 -48 -146 -70 -146 -8 0 -24 17 -35 37 -19
36 -115 143 -128 143 -3 0 -5 -39 -4 -87 2 -75 0 -88 -15 -91 -15 -3 -51 40
-83 99 -5 11 -17 22 -26 24 -10 3 -20 12 -23 20 -3 8 -12 15 -21 15 -8 0 -15
5 -15 12 0 8 -3 9 -10 2 -9 -9 7 -82 29 -129 16 -33 51 -117 51 -121 0 -16
-31 9 -109 87 -50 51 -94 89 -97 86 -3 -3 -2 -12 2 -19 12 -18 43 -110 44
-126 0 -15 -24 -4 -56 26 -11 11 -30 23 -42 26 -26 8 -25 5 19 -79 29 -56 36
-85 21 -85 -12 0 -64 40 -108 83 -42 40 -54 45 -54 22 0 -8 -6 -15 -14 -15 -8
0 -16 7 -20 15 -3 8 -11 15 -17 15 -15 0 -2 -49 20 -75 16 -19 41 -68 41 -82
0 -3 -13 -3 -30 1 -33 6 -36 0 -15 -28 8 -11 15 -23 15 -28 0 -15 -55 17 -95
55 -22 21 -41 33 -43 28 -3 -8 23 -69 89 -207 20 -43 24 -64 12 -64 -9 0 -73
98 -73 111 0 5 -4 9 -8 9 -5 0 -18 18 -31 40 -12 22 -26 40 -32 40 -5 0 -9 6
-9 13 0 7 -8 20 -17 29 -10 8 -26 26 -35 39 -22 28 -23 14 -4 -49 46 -157 41
-197 -15 -118 -18 25 -36 46 -41 46 -4 0 -8 5 -8 11 0 13 -37 50 -84 87 -17
12 -44 22 -63 22 -43 0 -151 -45 -182 -76 -31 -32 -89 -192 -111 -309 -6 -27
-15 -70 -21 -95 -5 -25 -16 -90 -24 -145 -8 -55 -19 -134 -25 -175 -14 -94
-14 -524 -1 -645 17 -147 41 -328 47 -362 15 -77 24 -21 24 142 0 123 4 187
14 217 8 24 17 59 21 78 3 19 15 64 25 100 10 36 28 101 40 145 12 44 31 109
41 144 11 35 19 72 19 82 0 10 4 28 9 41 20 49 25 65 37 113 6 28 21 82 33
120 46 158 49 163 110 145 57 -16 181 -160 246 -285 9 -16 29 -50 44 -75 54
-83 201 -365 201 -384 0 -8 3 -16 8 -18 4 -1 21 -32 38 -68 17 -36 49 -103 72
-150 22 -47 44 -97 47 -112 4 -16 11 -28 15 -28 4 0 11 -12 14 -27 4 -16 15
-46 25 -68 89 -193 101 -222 101 -234 0 -6 9 -26 20 -46 11 -20 20 -41 20 -48
0 -7 7 -25 15 -40 8 -15 17 -45 21 -65 6 -33 6 -36 -9 -24 -9 8 -30 42 -47 75
-17 34 -47 87 -65 117 -19 30 -34 61 -35 68 0 6 -4 12 -9 12 -5 0 -17 17 -26
38 -10 20 -21 39 -24 42 -5 4 -35 49 -66 101 -12 19 -87 130 -98 144 -81 106
-122 155 -129 155 -4 0 -8 5 -8 11 0 7 -10 21 -22 33 -13 12 -35 35 -50 52
-65 71 -180 164 -204 164 -14 0 0 -55 18 -69 20 -17 21 -21 9 -72 -7 -30 -18
-83 -26 -119 -7 -36 -18 -81 -25 -100 -6 -19 -17 -64 -25 -100 -25 -118 -36
-164 -56 -230 -10 -36 -19 -78 -19 -92 0 -15 -4 -30 -10 -33 -5 -3 -10 -15
-10 -26 0 -10 -4 -19 -10 -19 -6 0 -10 80 -10 219 0 187 -2 220 -16 232 -13
10 -17 10 -25 -2 -23 -35 -33 -56 -40 -89 -3 -19 -15 -71 -25 -115 -17 -73
-19 -129 -18 -635 l0 -555 40 -60 c22 -33 51 -80 65 -105 13 -25 27 -47 30
-50 13 -11 99 -199 107 -235 5 -22 13 -47 17 -56 3 -10 2 -20 -3 -23 -6 -3
-13 16 -17 44 -4 27 -11 50 -16 50 -5 0 -12 12 -15 28 -4 15 -15 43 -26 62
-10 19 -18 40 -18 47 0 6 -3 13 -7 15 -5 2 -21 29 -37 60 -69 140 -238 311
-329 333 -15 4 -30 11 -33 16 -9 16 -114 10 -152 -8 -48 -22 -72 -53 -100
-127 -22 -57 -24 -75 -23 -256 0 -136 5 -222 16 -285 9 -49 20 -117 24 -150 9
-61 25 -141 63 -295 20 -85 52 -160 108 -255 16 -27 29 -58 30 -67 0 -10 3
-18 8 -18 4 0 13 -15 20 -32 8 -18 22 -51 33 -74 10 -23 19 -45 19 -50 0 -5
10 -29 22 -54 52 -108 58 -123 58 -133 0 -7 9 -23 20 -37 11 -14 20 -33 20
-42 0 -10 4 -18 8 -18 4 0 16 -15 26 -32 30 -52 102 -116 162 -143 73 -34 153
-34 224 -1 28 13 47 26 43 29 -5 3 -40 11 -79 18 -38 7 -84 21 -102 31 -18 10
-39 18 -46 18 -7 0 -21 9 -31 20 -10 11 -21 20 -26 20 -11 0 -91 81 -114 115
-29 45 -65 118 -65 133 0 7 -4 21 -10 32 -5 11 -14 29 -20 40 -5 11 -10 27
-10 35 0 8 -8 41 -19 72 -10 32 -28 92 -41 133 -12 41 -30 100 -40 130 -9 30
-27 91 -40 135 -12 44 -31 107 -41 140 -10 33 -27 94 -38 135 -11 41 -27 104
-37 140 -17 66 -30 154 -41 288 -4 54 -1 86 11 127 19 59 34 69 99 67 31 -2
130 -43 147 -62 3 -3 25 -19 50 -35 52 -35 182 -162 225 -220 17 -22 32 -42
35 -45 9 -9 29 -43 48 -80 9 -19 20 -36 25 -38 4 -2 7 -8 7 -14 0 -17 32 -78
41 -78 5 0 10 8 10 18 2 23 16 -54 29 -153 16 -124 29 -196 42 -240 11 -35 14
-5 20 240 7 300 26 554 52 675 28 131 39 175 46 190 4 8 17 47 30 85 24 75 51
132 138 292 8 13 20 27 28 30 8 3 14 9 14 14 0 12 121 139 132 139 6 0 22 8
36 18 22 15 209 100 372 169 104 43 161 90 260 213 41 50 65 78 105 121 8 9
15 18 15 21 0 4 29 35 64 70 95 95 119 103 306 103 85 -1 191 -6 235 -13 44
-7 121 -17 170 -22 50 -5 117 -15 150 -20 33 -6 85 -14 115 -18 l55 -7 -21
-20 c-44 -41 -101 -93 -179 -160 -43 -39 -94 -85 -113 -102 -18 -18 -35 -33
-38 -33 -5 0 -31 -24 -112 -103 -20 -19 -24 -20 -33 -7 -9 13 -10 13 -6 -1 3
-9 0 -22 -6 -28 -6 -6 -8 -14 -4 -17 5 -5 76 43 97 66 3 3 30 25 60 50 30 25
60 49 66 55 6 5 29 25 52 43 23 19 50 41 60 50 11 10 38 33 61 52 23 19 59 50
79 67 20 18 40 33 45 33 4 0 12 12 17 26 8 21 15 25 33 20 12 -3 54 -11 92
-16 74 -11 229 -40 355 -67 41 -8 109 -21 150 -29 109 -19 228 -42 280 -55 25
-5 72 -14 105 -20 33 -5 74 -14 90 -19 17 -5 64 -16 105 -24 173 -34 267 -66
310 -106 9 -8 30 -27 46 -42 16 -15 34 -33 39 -40 57 -72 136 -224 162 -312
30 -104 72 -283 84 -356 6 -41 15 -91 20 -110 4 -19 11 -122 15 -227 6 -181
15 -230 30 -165 3 15 14 50 24 77 10 28 22 65 25 83 4 18 13 45 21 60 8 15 14
34 14 42 0 8 10 39 21 70 20 50 31 77 74 175 28 64 87 182 110 220 13 22 27
47 31 55 9 19 57 93 64 100 20 19 130 215 130 233 0 5 -15 7 -36 4 l-36 -6 5
42 c3 23 11 62 18 87 16 57 17 329 1 425 -6 39 -16 115 -22 170 -6 55 -15 123
-20 150 -5 28 -15 103 -20 167 -6 65 -16 136 -23 159 l-12 41 -27 -22 c-40
-31 -52 -18 -45 49 4 31 4 67 0 79 -6 23 -6 23 -20 2 -16 -23 -51 -27 -59 -6
-3 8 1 51 10 96 17 93 12 142 -30 255 -14 39 -28 81 -31 95 -4 14 -15 38 -25
55 -10 16 -18 36 -18 44 0 8 -16 47 -36 87 -37 75 -92 131 -169 172 -66 36
-91 -1 -65 -98 33 -123 43 -156 50 -165 26 -32 49 -294 32 -354 -28 -98 -34
-174 -18 -266 8 -49 20 -108 26 -130 7 -22 14 -56 17 -75 5 -31 4 -33 -10 -21
-9 7 -21 27 -26 45 -5 17 -26 70 -45 118 -20 48 -36 96 -36 107 0 11 -4 23
-10 26 -5 3 -10 15 -10 26 0 11 -9 32 -20 47 -18 25 -60 168 -80 272 -5 25
-14 63 -20 85 -6 22 -15 63 -20 90 -5 28 -16 77 -24 110 -22 89 -46 226 -46
261 0 23 -6 34 -25 42 -13 6 -27 23 -31 37 -4 15 -12 24 -19 21 -19 -7 -51 19
-65 54 -7 16 -16 30 -21 30 -5 0 -9 5 -9 11 0 6 -8 22 -19 35 l-19 24 -6 -53
c-10 -74 -21 -89 -43 -57 -29 39 -61 97 -68 122 -15 50 -31 78 -44 78 -21 0
-8 -204 18 -297 27 -95 27 -117 1 -83 -11 14 -20 28 -20 31 0 4 -14 35 -30 70
-17 35 -28 53 -25 39 3 -14 10 -57 16 -97 5 -39 16 -87 24 -107 8 -19 15 -47
15 -60 0 -37 -27 -22 -34 18 -4 18 -15 51 -26 74 -11 23 -20 48 -20 57 0 8 -4
23 -9 33 -16 32 -29 66 -52 137 -12 39 -30 90 -40 115 -9 25 -27 82 -40 128
-12 45 -31 92 -42 105 l-20 22 6 -25 c3 -14 15 -58 26 -99 25 -90 27 -141 6
-141 -9 0 -19 10 -24 23 -5 12 -15 37 -23 55 -19 48 -30 39 -22 -20 9 -71 -2
-59 -71 77 -59 116 -80 145 -103 145 -7 0 -26 8 -40 18 -51 35 -52 35 -45 1 6
-31 6 -31 -28 -24 -33 7 -50 19 -113 78 -16 15 -36 27 -43 27 -15 0 -16 -2 -4
-33 16 -40 0 -52 -52 -38 -66 16 -74 14 -94 -19 -22 -37 -42 -38 -79 -3 -16
16 -38 33 -49 40 -49 29 -143 73 -170 79 -16 4 -34 10 -40 14 -5 5 -28 11 -50
15 -22 4 -69 15 -105 25 -36 10 -111 22 -167 26 -96 6 -102 8 -122 35 -26 35
-32 36 -63 5z m465 -427 c23 -12 54 -30 69 -40 14 -11 33 -19 40 -19 29 0 54
-87 62 -215 3 -45 12 -94 20 -110 9 -17 16 -35 16 -42 0 -6 9 -27 19 -45 11
-18 23 -50 26 -70 4 -21 11 -38 16 -38 6 0 5 -8 -1 -19 -10 -19 -11 -19 -35 5
-13 13 -33 24 -45 24 -16 0 -20 -6 -20 -31 0 -20 -4 -29 -12 -27 -14 5 -66
104 -68 128 0 8 -9 33 -20 55 -11 22 -19 45 -20 50 0 13 -128 266 -158 315
-33 53 -51 94 -45 104 9 14 111 -3 156 -25z m660 -639 c15 -16 27 -37 27 -45
0 -8 4 -15 9 -15 5 0 17 -17 26 -37 10 -21 21 -40 24 -43 6 -5 22 -33 63 -110
10 -19 22 -42 27 -50 8 -16 25 -47 41 -80 6 -11 15 -30 22 -42 39 -77 83 -169
138 -293 9 -22 25 -56 34 -77 9 -20 16 -41 16 -47 0 -6 10 -27 22 -48 22 -36
23 -48 23 -265 0 -149 -3 -228 -10 -228 -20 0 -34 57 -37 160 -2 75 -8 115
-20 139 -10 19 -18 39 -18 45 -1 6 -9 29 -20 51 -11 22 -20 47 -20 55 0 8 -9
26 -20 40 -11 14 -20 29 -20 34 0 5 -9 27 -19 50 -11 23 -25 56 -33 74 -7 17
-16 32 -20 32 -5 0 -8 9 -8 19 0 11 -4 22 -8 25 -4 3 -21 31 -37 63 -19 36
-31 51 -33 41 -3 -15 60 -220 91 -298 5 -14 13 -34 18 -45 17 -42 38 -129 33
-137 -16 -26 -75 30 -107 102 -7 14 -14 27 -18 30 -3 3 -12 19 -20 35 -9 17
-20 39 -27 50 -14 25 -76 161 -109 240 -14 33 -31 67 -38 75 -10 11 -15 80
-21 257 -8 291 -5 305 49 243z m-2678 -80 c3 -5 1 -10 -4 -10 -6 0 -11 5 -11
10 0 6 2 10 4 10 3 0 8 -4 11 -10z m1757 -172 c10 -18 22 -44 28 -58 5 -14 14
-32 20 -40 5 -8 17 -33 27 -55 9 -22 20 -42 23 -45 3 -3 20 -34 38 -70 70
-141 108 -188 92 -113 -5 21 -16 55 -25 75 -8 21 -15 47 -15 58 0 11 -4 29
-10 40 -5 11 -14 28 -19 39 -5 10 -13 50 -17 90 -6 66 -5 71 12 71 12 0 27
-14 39 -37 11 -21 22 -40 25 -43 12 -12 50 -90 50 -104 0 -8 3 -16 8 -18 7 -3
95 -178 123 -245 8 -18 17 -33 20 -33 4 0 10 -15 13 -34 4 -19 10 -36 14 -38
7 -3 38 -65 83 -168 12 -25 27 -58 35 -73 21 -42 7 -51 -27 -18 -16 16 -29 32
-29 35 0 3 -15 21 -33 39 -19 17 -51 54 -73 82 -68 87 -86 104 -100 98 -8 -3
-14 -14 -14 -24 0 -10 -4 -19 -10 -19 -5 0 -10 -9 -10 -19 0 -21 -22 -33 -45
-25 -20 8 -115 213 -115 248 0 8 -8 30 -18 48 -10 18 -21 44 -24 58 -7 29 -46
146 -59 175 -9 20 -26 87 -36 139 -7 36 6 29 29 -16z m-2060 -3070 c-9 -9 -12
-4 -11 23 0 32 1 33 11 11 8 -17 8 -26 0 -34z"/>
<path d="M5297 8926 c-5 -14 -2 -17 15 -14 22 3 38 28 18 28 -6 0 -8 -4 -5
-10 3 -5 2 -10 -4 -10 -5 0 -11 5 -13 12 -3 7 -7 5 -11 -6z"/>
<path d="M5371 8902 c0 -13 -5 -21 -9 -18 -5 3 -9 -2 -9 -10 0 -13 2 -13 15
-1 7 8 12 23 9 33 -4 15 -5 15 -6 -4z"/>
<path d="M5313 8884 c0 -8 6 -14 14 -14 7 0 13 4 13 9 0 5 -6 11 -13 14 -8 3
-14 -1 -14 -9z"/>
<path d="M5390 8880 c0 -11 4 -20 9 -20 6 0 9 9 8 20 -1 11 -5 20 -9 20 -4 0
-8 -9 -8 -20z"/>
<path d="M5343 8835 c-8 -22 5 -31 20 -15 10 10 9 11 -2 5 -11 -6 -13 -4 -8 8
3 10 4 17 1 17 -2 0 -7 -7 -11 -15z"/>
<path d="M5423 8844 c20 -6 22 -20 5 -27 -8 -3 -5 -6 5 -6 26 -1 18 33 -8 36
-16 1 -16 1 -2 -3z"/>
<path d="M5461 8834 c0 -11 3 -14 6 -6 3 7 2 16 -1 19 -3 4 -6 -2 -5 -13z"/>
<path d="M5486 8833 c-4 -9 -3 -20 1 -24 4 -4 9 3 9 17 2 28 -1 31 -10 7z"/>
<path d="M5380 8796 c0 -7 8 -20 17 -27 15 -12 16 -12 10 4 -4 10 -7 23 -7 28
0 5 -4 9 -10 9 -5 0 -10 -6 -10 -14z"/>
<path d="M5440 8796 c0 -2 7 -9 15 -16 12 -10 15 -10 15 4 0 9 -7 16 -15 16
-8 0 -15 -2 -15 -4z"/>
<path d="M5492 8770 c0 -14 2 -19 5 -12 2 6 2 18 0 25 -3 6 -5 1 -5 -13z"/>
<path d="M5432 8750 c0 -14 2 -19 5 -12 2 6 2 18 0 25 -3 6 -5 1 -5 -13z"/>
<path d="M5476 8726 c2 -16 4 -34 4 -40 0 -15 20 16 20 32 0 7 -4 11 -9 7 -5
-3 -12 3 -14 12 -2 10 -3 5 -1 -11z"/>
<path d="M5452 8700 c-1 -31 -7 -61 -13 -67 -7 -7 -7 -13 0 -17 13 -8 24 48
18 99 -3 34 -4 31 -5 -15z"/>
<path d="M5390 8708 c0 -5 7 -8 15 -8 7 0 18 -8 24 -17 8 -14 9 -13 8 7 -2 19
-8 25 -24 25 -13 0 -23 -3 -23 -7z"/>
<path d="M5410 8675 c0 -5 5 -17 10 -25 5 -8 10 -10 10 -5 0 6 -5 17 -10 25
-5 8 -10 11 -10 5z"/>
<path d="M5496 8649 c-8 -40 -8 -54 1 -46 7 8 16 77 10 77 -3 0 -7 -14 -11
-31z"/>
<path d="M5470 8635 c-1 -5 -1 -19 0 -29 1 -14 -3 -17 -17 -12 -14 6 -16 5 -5
-5 17 -18 35 2 29 32 -2 13 -5 20 -7 14z"/>
<path d="M5473 8536 c-1 -18 1 -23 4 -11 3 11 10 23 15 26 6 4 4 8 -4 12 -10
3 -14 -4 -15 -27z"/>
<path d="M5500 8535 c-9 -10 -9 -15 -1 -15 6 0 11 5 11 11 0 5 5 7 10 4 6 -3
10 -1 10 4 0 16 -16 13 -30 -4z"/>
<path d="M5490 8500 c0 -5 5 -10 10 -10 6 0 10 5 10 10 0 6 -4 10 -10 10 -5 0
-10 -4 -10 -10z"/>
<path d="M5505 8480 c-3 -5 1 -10 9 -10 9 0 16 5 16 10 0 6 -4 10 -9 10 -6 0
-13 -4 -16 -10z"/>
<path d="M5540 8479 c0 -8 9 -20 20 -27 11 -7 20 -11 20 -9 0 2 -9 14 -20 27
-13 15 -20 18 -20 9z"/>
<path d="M6026 8222 c3 -59 3 -62 17 -59 8 1 14 -20 18 -68 3 -38 7 -56 8 -40
1 17 5 24 8 16 4 -11 7 -11 13 -1 5 8 2 20 -7 28 -9 9 -13 28 -11 48 2 19 -1
32 -7 31 -5 -1 -9 7 -7 18 l4 20 -16 -20 c-14 -19 -15 -18 -9 16 3 20 1 39 -3
42 -5 3 -8 -11 -8 -31z"/>
<path d="M6084 8128 c-4 -6 0 -16 8 -22 8 -6 25 -31 37 -56 17 -34 20 -38 15
-15 -3 17 -7 35 -7 42 0 7 -4 10 -9 7 -4 -3 -8 2 -8 10 0 9 -7 16 -16 16 -10
0 -14 6 -10 15 6 18 0 20 -10 3z"/>
<path d="M6100 8040 c0 -8 5 -22 10 -30 9 -13 10 -13 10 0 0 8 -5 22 -10 30
-9 13 -10 13 -10 0z"/>
<path d="M6082 8020 c0 -14 2 -19 5 -12 2 6 2 18 0 25 -3 6 -5 1 -5 -13z"/>
<path d="M6021 7995 c1 -19 18 -51 18 -35 0 8 -4 22 -9 30 -5 8 -9 11 -9 5z"/>
<path d="M6165 7989 c-4 -6 -5 -12 -2 -15 2 -3 7 2 10 11 7 17 1 20 -8 4z"/>
<path d="M6051 7964 c0 -11 3 -14 6 -6 3 7 2 16 -1 19 -3 4 -6 -2 -5 -13z"/>
<path d="M6172 7956 c-9 -19 -8 -25 4 -30 8 -3 14 -18 13 -33 0 -25 -1 -26 -9
-8 -6 13 -9 15 -9 5 -1 -31 27 -47 46 -26 5 5 3 6 -4 2 -9 -5 -13 2 -13 23 0
16 -5 33 -11 37 -6 3 -8 17 -5 30 8 31 2 31 -12 0z"/>
<path d="M6065 7918 c-8 -29 1 -68 16 -68 12 0 12 17 -1 25 -5 3 -10 16 -9 28
l0 22 11 -22 c6 -13 14 -23 18 -23 10 0 22 31 15 38 -3 3 -5 0 -5 -6 0 -20
-16 -13 -27 11 l-11 22 -7 -27z"/>
<path d="M6033 7848 c1 -28 5 -44 10 -39 6 6 5 25 -1 48 l-10 38 1 -47z"/>
<path d="M6109 7858 c-1 -7 -1 -26 -1 -43 1 -29 1 -29 -7 -5 -6 17 -9 19 -10
8 -1 -11 -9 -18 -21 -18 -11 0 -20 -4 -20 -10 0 -5 6 -7 14 -4 8 3 17 1 21 -5
5 -10 -7 -15 -27 -12 -4 0 -5 -6 -1 -15 4 -11 8 -12 13 -4 6 9 9 9 13 -1 4
-10 6 -10 6 -1 2 21 19 13 23 -10 2 -13 5 12 6 55 1 42 0 77 -3 77 -3 0 -5 -6
-6 -12z"/>
<path d="M6246 7857 c5 -14 2 -16 -12 -11 -16 6 -17 5 -6 -7 9 -10 15 -10 24
-1 9 9 9 15 -1 25 -10 10 -11 9 -5 -6z"/>
<path d="M6060 7831 c0 -5 5 -13 10 -16 6 -3 10 -2 10 4 0 5 -4 13 -10 16 -5
3 -10 2 -10 -4z"/>
<path d="M6197 7829 c7 -7 15 -10 18 -7 3 3 -2 9 -12 12 -14 6 -15 5 -6 -5z"/>
<path d="M6264 7797 c3 -21 1 -50 -4 -63 -6 -14 -6 -23 -1 -20 5 3 12 -5 15
-18 3 -13 12 -26 20 -29 12 -5 11 1 -4 25 -11 18 -17 42 -14 57 2 14 0 40 -6
56 -10 29 -10 29 -6 -8z"/>
<path d="M6225 7799 c-4 -6 -4 -13 -1 -16 3 -4 6 -1 6 6 0 7 5 9 10 6 6 -3 10
-1 10 4 0 14 -17 14 -25 0z"/>
<path d="M6232 7759 c2 -6 8 -10 13 -10 5 0 11 4 13 10 2 6 -4 11 -13 11 -9 0
-15 -5 -13 -11z"/>
<path d="M6131 7734 c0 -11 3 -14 6 -6 3 7 2 16 -1 19 -3 4 -6 -2 -5 -13z"/>
<path d="M6290 7730 c0 -19 3 -21 12 -12 9 9 9 15 0 24 -9 9 -12 7 -12 -12z"/>
<path d="M6310 7700 c0 -5 5 -10 11 -10 5 0 7 5 4 10 -3 6 -8 10 -11 10 -2 0
-4 -4 -4 -10z"/>
<path d="M6112 7680 c0 -14 2 -19 5 -12 2 6 2 18 0 25 -3 6 -5 1 -5 -13z"/>
<path d="M6328 7662 c-7 -27 2 -42 25 -41 21 0 20 1 -3 11 -21 8 -22 11 -9 17
14 5 14 8 4 18 -10 9 -14 8 -17 -5z"/>
<path d="M6300 7647 c0 -4 9 -24 20 -44 15 -28 20 -32 21 -18 0 20 0 20 9 0 8
-19 9 -19 9 4 1 16 -3 22 -14 17 -9 -3 -20 5 -29 22 -9 15 -15 24 -16 19z"/>
<path d="M6130 7631 c0 -10 14 -15 33 -12 11 2 8 -24 -5 -37 -8 -8 -9 -12 -1
-12 6 0 13 -7 15 -15 2 -10 7 -12 18 -5 13 9 13 11 0 19 -8 6 -15 20 -15 33 0
13 -4 23 -10 23 -5 0 -16 4 -22 8 -8 5 -13 4 -13 -2z"/>
<path d="M6345 7540 c3 -5 8 -10 11 -10 2 0 4 5 4 10 0 6 -5 10 -11 10 -5 0
-7 -4 -4 -10z"/>
<path d="M6186 7524 c-8 -22 -8 -24 6 -24 6 0 8 3 5 7 -4 3 -2 12 4 20 7 8 8
13 1 13 -5 0 -13 -7 -16 -16z"/>
<path d="M6360 7520 c-13 -8 -12 -10 3 -10 11 0 15 -5 11 -11 -4 -8 0 -9 15
-4 17 5 21 2 21 -14 0 -12 -7 -21 -15 -21 -8 0 -15 -4 -15 -10 0 -5 7 -6 17
-3 12 5 14 3 9 -8 -4 -8 -1 -6 7 4 11 14 16 15 20 5 4 -8 6 -7 6 5 1 9 -3 17
-9 17 -5 0 -10 7 -10 15 0 9 -8 19 -17 22 -10 4 -20 10 -23 14 -3 4 -12 4 -20
-1z"/>
<path d="M6231 7428 c5 -10 12 -18 15 -18 3 0 2 5 -1 10 -3 6 -1 10 4 10 6 0
11 4 11 8 0 4 -9 8 -19 8 -16 0 -17 -4 -10 -18z"/>
<path d="M6410 7420 c-13 -8 -13 -10 2 -10 9 0 20 5 23 10 8 13 -5 13 -25 0z"/>
<path d="M6451 7398 c-1 -21 -17 -24 -24 -5 -4 9 -6 9 -6 0 -1 -17 19 -27 31
-15 6 6 8 16 5 24 -4 9 -6 7 -6 -4z"/>
<path d="M6256 7387 c3 -10 9 -15 12 -12 3 3 0 11 -7 18 -10 9 -11 8 -5 -6z"/>
<path d="M6460 7301 c0 -5 7 -12 16 -15 14 -5 15 -4 4 9 -14 17 -20 19 -20 6z"/>
<path d="M5320 7901 c0 -6 4 -13 10 -16 6 -3 7 1 4 9 -7 18 -14 21 -14 7z"/>
<path d="M5335 7850 c-3 -5 -2 -10 4 -10 5 0 13 5 16 10 3 6 2 10 -4 10 -5 0
-13 -4 -16 -10z"/>
<path d="M5356 7793 c-4 -9 -2 -21 3 -26 5 -5 7 -16 4 -24 -5 -12 -1 -11 15 3
26 22 28 28 7 20 -14 -5 -19 5 -16 32 3 17 -6 15 -13 -5z"/>
<path d="M5385 7730 c-11 -12 -13 -20 -6 -20 6 0 14 7 17 15 4 8 11 12 17 8 6
-3 7 -1 3 5 -9 16 -10 15 -31 -8z"/>
<path d="M5250 7701 c0 -6 4 -13 10 -16 6 -3 7 1 4 9 -7 18 -14 21 -14 7z"/>
<path d="M5399 7698 c-1 -7 -1 -17 0 -22 1 -4 -2 -13 -6 -20 -4 -7 0 -3 10 7
19 22 21 33 7 42 -5 3 -11 0 -11 -7z"/>
<path d="M5416 7644 c-9 -36 1 -43 13 -10 6 14 13 26 16 26 4 0 4 -4 0 -9 -3
-5 0 -13 6 -16 7 -5 10 0 7 11 -5 30 -35 29 -42 -2z"/>
<path d="M5280 7635 c-11 -13 -10 -14 4 -9 9 3 16 10 16 15 0 13 -6 11 -20 -6z"/>
<path d="M5467 7615 c-6 -15 10 -32 20 -21 4 3 1 6 -5 6 -6 0 -9 7 -6 15 4 8
4 15 1 15 -3 0 -7 -7 -10 -15z"/>
<path d="M5281 7611 c-8 -6 -9 -11 -3 -15 6 -3 14 -1 17 5 9 14 2 20 -14 10z"/>
<path d="M5393 7598 c2 -13 14 -28 26 -34 22 -11 21 -12 -11 -18 -18 -4 -44
-7 -58 -8 -14 0 -20 -3 -13 -5 7 -2 9 -11 6 -19 -3 -7 -9 -11 -14 -8 -5 3 -9
3 -9 0 0 -3 9 -10 19 -15 16 -9 18 -8 13 11 -4 17 -2 20 12 15 10 -4 15 -3 11
3 -3 5 7 12 22 16 68 15 74 21 54 53 -6 9 -11 10 -15 2 -4 -6 -2 -11 3 -11 6
0 11 -4 11 -10 0 -6 -10 -5 -25 2 -14 6 -21 14 -16 17 5 3 3 12 -5 19 -12 11
-13 9 -11 -10z"/>
<path d="M5306 7559 c3 -41 11 -47 12 -9 0 16 -3 32 -7 34 -4 3 -6 -9 -5 -25z"/>
<path d="M5482 7571 c-8 -5 -12 -17 -10 -27 2 -15 5 -13 15 9 14 30 14 30 -5
18z"/>
<path d="M5330 7566 c0 -2 7 -7 16 -10 8 -3 12 -2 9 4 -6 10 -25 14 -25 6z"/>
<path d="M5496 7545 c-7 -19 3 -45 18 -45 6 0 4 -5 -4 -10 -13 -8 -13 -10 2
-10 10 0 16 7 15 19 0 11 -6 19 -12 18 -5 -1 -9 8 -7 21 4 25 -3 29 -12 7z"/>
<path d="M5470 7510 c0 -5 5 -10 11 -10 5 0 7 5 4 10 -3 6 -8 10 -11 10 -2 0
-4 -4 -4 -10z"/>
<path d="M5528 7451 c12 -10 18 -22 14 -26 -4 -5 -1 -5 5 -1 16 9 -5 46 -26
46 -10 0 -7 -6 7 -19z"/>
<path d="M5680 9390 c0 -5 5 -10 10 -10 6 0 10 5 10 10 0 6 -4 10 -10 10 -5 0
-10 -4 -10 -10z"/>
<path d="M5760 9393 c0 -8 51 -35 56 -30 2 2 -10 11 -26 21 -17 9 -30 14 -30
9z"/>
<path d="M5840 9395 c0 -22 17 -36 36 -28 18 7 18 6 2 -11 -10 -9 -23 -14 -29
-10 -8 4 -9 3 -5 -4 10 -16 22 -15 40 4 22 22 20 37 -4 31 -12 -3 -24 1 -30
11 -5 10 -9 13 -10 7z"/>
<path d="M4575 9380 c3 -5 10 -10 16 -10 5 0 9 5 9 10 0 6 -7 10 -16 10 -8 0
-12 -4 -9 -10z"/>
<path d="M4800 9382 c0 -5 7 -15 15 -22 8 -7 15 -9 15 -6 0 4 -7 14 -15 22 -8
9 -15 11 -15 6z"/>
<path d="M5138 9383 c7 -3 16 -2 19 1 4 3 -2 6 -13 5 -11 0 -14 -3 -6 -6z"/>
<path d="M4267 9373 c-3 -5 11 -9 32 -10 27 -1 31 1 16 7 -26 11 -43 12 -48 3z"/>
<path d="M5350 9348 c19 -5 49 -13 66 -17 22 -6 31 -5 31 4 0 7 -8 10 -20 7
-11 -3 -18 -1 -15 4 4 5 -17 9 -45 10 -50 1 -50 0 -17 -8z"/>
<path d="M5480 9350 c-17 -5 -19 -8 -7 -9 9 -1 17 -5 17 -11 0 -5 6 -10 13
-10 7 0 13 9 13 20 0 11 -3 20 -6 19 -3 -1 -16 -5 -30 -9z"/>
<path d="M4327 9337 c-8 -20 11 -31 40 -24 15 4 14 5 -4 6 -12 0 -23 9 -25 19
-3 16 -4 16 -11 -1z"/>
<path d="M4803 9329 c-2 -23 3 -25 10 -4 4 8 3 16 -1 19 -4 3 -9 -4 -9 -15z"/>
<path d="M5923 9343 c9 -2 23 -2 30 0 6 3 -1 5 -18 5 -16 0 -22 -2 -12 -5z"/>
<path d="M4156 9329 c2 -4 1 -9 -3 -12 -5 -2 -1 -2 7 1 8 2 29 8 45 12 28 8
27 8 -12 7 -23 0 -40 -4 -37 -8z"/>
<path d="M6000 9321 c0 -23 31 -35 61 -26 17 6 19 9 8 16 -19 12 -32 11 -24
-1 3 -5 -1 -10 -9 -10 -9 0 -15 3 -15 8 3 18 -2 32 -11 32 -5 0 -10 -9 -10
-19z"/>
<path d="M5465 9321 c-3 -5 -1 -12 5 -16 5 -3 10 1 10 9 0 18 -6 21 -15 7z"/>
<path d="M5882 9318 c-8 -10 -5 -13 13 -13 18 0 21 3 13 13 -6 6 -12 12 -13
12 -1 0 -7 -6 -13 -12z"/>
<path d="M5930 9315 c7 -8 9 -15 5 -15 -4 0 -2 -6 4 -13 6 -8 8 -17 4 -21 -4
-4 0 -4 10 0 10 3 17 1 17 -6 0 -6 5 -8 11 -4 8 4 3 12 -12 20 -13 7 -20 13
-16 14 12 0 -12 40 -25 40 -7 0 -6 -5 2 -15z"/>
<path d="M4105 9310 c-3 -5 2 -10 12 -10 15 0 16 -2 3 -10 -10 -7 -4 -8 20 -3
19 4 50 8 68 8 32 0 41 8 21 21 -6 3 -29 1 -50 -6 -30 -10 -42 -10 -53 -1 -10
8 -16 9 -21 1z"/>
<path d="M4368 9302 c-35 -4 -37 -17 -3 -17 14 0 25 4 25 8 0 5 4 6 10 2 5 -3
7 -12 3 -20 -3 -8 -3 -15 0 -15 3 0 7 6 10 14 8 20 -13 32 -45 28z"/>
<path d="M4805 9272 c2 -32 14 -62 24 -62 12 0 0 63 -14 77 -10 9 -12 6 -10
-15z"/>
<path d="M5836 9284 c-4 -9 -4 -19 -1 -22 2 -3 7 3 11 12 4 9 4 19 1 22 -2 3
-7 -3 -11 -12z"/>
<path d="M6110 9291 c0 -5 -9 -7 -20 -4 -14 4 -20 0 -20 -12 0 -14 3 -15 15
-5 14 11 19 7 16 -12 0 -5 4 -8 9 -8 6 0 10 7 10 16 0 14 3 14 15 4 9 -7 18
-11 21 -8 2 3 -7 13 -21 22 -14 9 -25 12 -25 7z"/>
<path d="M4179 9272 c-18 -21 -14 -42 9 -42 13 0 14 2 4 8 -16 11 -6 39 13 39
8 0 15 -4 15 -9 0 -4 -5 -8 -11 -8 -5 0 -7 -5 -3 -11 5 -8 8 -8 14 0 3 7 13
10 21 8 8 -2 10 -2 5 1 -4 2 -2 9 5 14 11 8 10 9 -3 4 -10 -3 -20 -1 -23 4 -9
15 -29 12 -46 -8z"/>
<path d="M3990 9249 c-25 -16 -53 -27 -62 -25 -10 2 -21 -1 -24 -6 -5 -7 9 -9
42 -5 33 5 43 4 29 -3 -18 -8 -17 -9 8 -7 32 2 31 1 12 21 -14 14 -13 16 9 22
14 3 30 12 37 20 18 22 -2 15 -51 -17z"/>
<path d="M4276 9271 c-3 -5 1 -11 9 -15 8 -3 15 -12 15 -21 0 -8 4 -15 8 -15
4 0 8 9 8 19 0 21 -32 46 -40 32z"/>
<path d="M4671 9264 c0 -11 3 -14 6 -6 3 7 2 16 -1 19 -3 4 -6 -2 -5 -13z"/>
<path d="M4696 9264 c-3 -9 -6 -26 -6 -39 0 -13 -5 -26 -10 -28 -6 -3 -5 -4 2
-3 7 1 15 18 17 37 3 29 5 31 11 14 7 -17 8 -16 7 8 -2 30 -12 36 -21 11z"/>
<path d="M5672 9265 c2 -11 -1 -26 -5 -32 -5 -7 -4 -13 2 -13 17 0 21 17 11
42 -8 19 -9 20 -8 3z"/>
<path d="M5690 9269 c0 -5 5 -7 10 -4 6 3 10 8 10 11 0 2 -4 4 -10 4 -5 0 -10
-5 -10 -11z"/>
<path d="M5803 9260 c3 -10 0 -21 -7 -24 -6 -3 0 -3 13 0 13 4 21 2 18 -3 -4
-5 0 -10 7 -10 7 0 13 6 13 14 0 7 -3 11 -5 8 -8 -8 -32 16 -26 26 3 5 0 9 -7
9 -6 0 -9 -8 -6 -20z"/>
<path d="M6013 9265 c-16 -18 -16 -25 3 -50 15 -19 15 -19 8 9 -5 21 -4 27 5
22 7 -5 11 0 11 13 0 24 -10 26 -27 6z"/>
<path d="M4422 9258 c-19 -19 -14 -29 8 -16 20 13 27 28 12 28 -4 0 -13 -5
-20 -12z"/>
<path d="M5636 9256 c3 -9 11 -16 16 -16 13 0 5 23 -10 28 -7 2 -10 -2 -6 -12z"/>
<path d="M5712 9250 c-15 -24 -16 -50 -2 -50 6 0 13 0 17 -1 4 0 10 9 15 20
10 28 0 27 -12 -1 -9 -23 -9 -23 -9 3 -1 14 4 30 11 37 7 7 8 12 2 12 -5 0
-15 -9 -22 -20z"/>
<path d="M5770 9260 c-13 -8 -12 -10 3 -10 9 0 17 5 17 10 0 12 -1 12 -20 0z"/>
<path d="M4041 9244 c-18 -8 -31 -17 -28 -20 5 -6 67 23 67 31 0 6 3 7 -39
-11z"/>
<path d="M4655 9240 c9 -30 13 -35 21 -27 3 3 -2 16 -11 29 l-17 23 7 -25z"/>
<path d="M4840 9256 c0 -2 7 -9 15 -16 9 -7 15 -8 15 -2 0 5 -7 12 -15 16 -8
3 -15 4 -15 2z"/>
<path d="M6137 9239 c8 -8 16 -8 30 0 16 9 14 10 -11 11 -22 0 -27 -3 -19 -11z"/>
<path d="M6167 9228 c-26 -9 -27 -11 -10 -23 10 -7 22 -11 27 -7 5 3 1 9 -10
13 -18 7 -17 8 3 8 12 1 25 6 28 11 7 12 -1 12 -38 -2z"/>
<path d="M6218 9218 c-9 -5 -4 -8 15 -8 15 0 27 4 27 8 0 11 -25 11 -42 0z"/>
<path d="M4438 9213 c7 -3 16 -2 19 1 4 3 -2 6 -13 5 -11 0 -14 -3 -6 -6z"/>
<path d="M4470 9216 c0 -2 7 -7 16 -10 8 -3 12 -2 9 4 -6 10 -25 14 -25 6z"/>
<path d="M4874 9208 c-4 -7 -4 -10 1 -6 4 4 16 -3 26 -15 l18 -22 1 23 c0 13
-4 20 -10 17 -5 -3 -10 -1 -10 4 0 15 -17 14 -26 -1z"/>
<path d="M6266 9204 c-4 -9 -4 -19 -1 -22 2 -3 7 3 11 12 4 9 4 19 1 22 -2 3
-7 -3 -11 -12z"/>
<path d="M4023 9198 c-13 -6 -23 -15 -23 -19 0 -4 14 -1 30 7 29 15 39 25 23
23 -5 0 -18 -5 -30 -11z"/>
<path d="M4100 9184 l-25 -14 33 0 c22 0 32 -5 32 -15 0 -8 5 -15 11 -15 5 0
7 5 3 11 -3 6 0 15 7 20 10 6 6 9 -14 9 -16 0 -26 4 -22 10 7 12 7 12 -25 -6z"/>
<path d="M4335 9190 c3 -5 8 -10 11 -10 2 0 4 5 4 10 0 6 -5 10 -11 10 -5 0
-7 -4 -4 -10z"/>
<path d="M6206 9192 c5 -4 15 -18 22 -32 11 -22 11 -22 6 -2 -3 12 -1 22 5 22
24 0 9 15 -16 17 -14 0 -22 -2 -17 -5z"/>
<path d="M4360 9182 c0 -16 28 -22 52 -11 23 9 23 9 -1 5 -14 -3 -31 0 -38 6
-8 7 -13 7 -13 0z"/>
<path d="M4470 9180 c0 -5 5 -10 10 -10 6 0 10 5 10 10 0 6 -4 10 -10 10 -5 0
-10 -4 -10 -10z"/>
<path d="M4029 9159 c-13 -11 -17 -18 -9 -15 8 3 23 9 33 12 9 4 17 10 17 15
0 15 -16 10 -41 -12z"/>
<path d="M4507 9173 c-4 -3 -7 -16 -8 -27 0 -21 -1 -21 -9 -1 -7 16 -9 17 -9
3 -1 -9 -7 -18 -13 -21 -10 -3 -8 -10 5 -23 16 -17 17 -17 17 -1 0 9 5 17 11
17 7 0 9 -10 5 -24 -3 -14 -1 -28 6 -32 7 -4 8 -3 4 4 -7 11 29 18 59 12 6 -1
0 9 -13 22 -12 14 -19 28 -15 31 3 4 -1 7 -11 7 -9 0 -14 -4 -11 -10 3 -5 1
-10 -6 -10 -7 0 -9 10 -5 30 6 31 4 35 -7 23z m43 -73 c12 -8 11 -10 -7 -10
-13 0 -23 5 -23 10 0 13 11 13 30 0z"/>
<path d="M4690 9176 c0 -2 7 -9 15 -16 13 -11 14 -10 9 4 -5 14 -24 23 -24 12z"/>
<path d="M3813 9159 c-6 -6 -9 -18 -6 -25 6 -16 33 -19 33 -4 0 6 -5 10 -11
10 -8 0 -8 5 1 15 14 17 0 21 -17 4z"/>
<path d="M4446 9155 c4 -8 10 -15 15 -15 5 0 9 7 9 15 0 8 -7 15 -15 15 -9 0
-12 -6 -9 -15z"/>
<path d="M4987 9153 c3 -7 6 -13 8 -13 2 0 5 6 8 13 3 8 -1 14 -8 14 -7 0 -11
-6 -8 -14z"/>
<path d="M6285 9143 c3 -24 -1 -33 -11 -33 -12 0 -12 -3 -2 -14 11 -12 14 -10
22 11 5 15 4 33 -2 46 -9 19 -10 18 -7 -10z"/>
<path d="M4063 9148 c-25 -12 -29 -23 -11 -34 7 -4 8 -3 4 4 -4 6 5 18 21 26
32 17 20 20 -14 4z"/>
<path d="M4171 9144 c0 -11 3 -14 6 -6 3 7 2 16 -1 19 -3 4 -6 -2 -5 -13z"/>
<path d="M6250 9153 c0 -4 5 -15 10 -23 8 -13 10 -13 10 2 0 9 -4 20 -10 23
-5 3 -10 3 -10 -2z"/>
<path d="M3753 9143 c9 -2 23 -2 30 0 6 3 -1 5 -18 5 -16 0 -22 -2 -12 -5z"/>
<path d="M4395 9143 c11 -3 29 -12 39 -22 18 -15 18 -15 7 7 -8 15 -20 22 -39
21 -21 -1 -22 -2 -7 -6z"/>
<path d="M4966 9141 c-3 -5 1 -11 9 -14 9 -4 12 -1 8 9 -6 16 -10 17 -17 5z"/>
<path d="M6313 9131 c1 -11 8 -21 15 -21 12 0 12 3 1 18 -7 9 -14 19 -16 21
-1 2 -1 -6 0 -18z"/>
<path d="M6418 9143 c7 -3 16 -2 19 1 4 3 -2 6 -13 5 -11 0 -14 -3 -6 -6z"/>
<path d="M3705 9131 c-2 -4 10 -8 26 -9 16 -1 29 -1 29 2 0 7 -50 13 -55 7z"/>
<path d="M4872 9125 c-7 -8 -9 -15 -5 -16 4 -1 23 -2 40 -4 l33 -3 -24 19
c-28 22 -27 22 -44 4z"/>
<path d="M5005 9131 c-3 -5 0 -13 6 -17 8 -5 9 -3 4 6 -6 10 -4 12 9 7 10 -4
15 -3 11 3 -8 13 -22 13 -30 1z"/>
<path d="M6440 9130 c-8 -5 -12 -12 -9 -15 4 -3 12 1 19 10 14 17 11 19 -10 5z"/>
<path d="M3778 9123 c7 -3 16 -2 19 1 4 3 -2 6 -13 5 -11 0 -14 -3 -6 -6z"/>
<path d="M4005 9110 c2 -27 15 -38 15 -12 0 11 -4 23 -8 26 -5 3 -8 -4 -7 -14z"/>
<path d="M4705 9121 c-3 -5 -2 -12 3 -15 5 -3 9 1 9 9 0 17 -3 19 -12 6z"/>
<path d="M4180 9116 c0 -2 8 -10 18 -17 15 -13 16 -12 3 4 -13 16 -21 21 -21
13z"/>
<path d="M4730 9110 c0 -5 5 -10 11 -10 5 0 7 5 4 10 -3 6 -8 10 -11 10 -2 0
-4 -4 -4 -10z"/>
<path d="M4960 9109 c0 -5 9 -9 20 -9 11 0 20 2 20 4 0 2 -9 6 -20 9 -11 3
-20 1 -20 -4z"/>
<path d="M3620 9090 c-13 -9 -13 -10 0 -10 8 0 22 5 30 10 13 9 13 10 0 10 -8
0 -22 -5 -30 -10z"/>
<path d="M4030 9068 c0 -36 4 -35 14 5 4 16 2 27 -4 27 -5 0 -10 -14 -10 -32z"/>
<path d="M6480 9090 c0 -5 5 -10 10 -10 6 0 10 5 10 10 0 6 -4 10 -10 10 -5 0
-10 -4 -10 -10z"/>
<path d="M6521 9048 c-1 -35 3 -58 9 -58 7 0 8 13 4 35 -5 31 -4 35 15 35 13
0 21 -6 21 -17 0 -15 -2 -16 -10 -3 -8 12 -10 11 -10 -7 0 -26 7 -28 33 -9 18
14 25 42 7 31 -5 -3 -10 -1 -10 4 0 6 -11 11 -24 11 -15 0 -26 7 -29 18 -3 9
-5 -9 -6 -40z"/>
<path d="M3630 9070 c-31 -7 -32 -7 -7 -9 15 0 27 -5 27 -11 0 -5 5 -10 11
-10 6 0 9 6 6 14 -3 8 -1 17 6 20 17 6 -1 5 -43 -4z"/>
<path d="M6460 9066 c0 -12 5 -16 15 -12 11 4 15 -2 16 -27 0 -18 4 -41 8 -52
5 -13 7 0 5 35 -2 38 -7 55 -16 55 -7 0 -16 5 -20 10 -4 6 -8 2 -8 -9z"/>
<path d="M3581 9054 c0 -11 3 -14 6 -6 3 7 2 16 -1 19 -3 4 -6 -2 -5 -13z"/>
<path d="M4005 9060 c-3 -5 -1 -10 4 -10 6 0 11 5 11 10 0 6 -2 10 -4 10 -3 0
-8 -4 -11 -10z"/>
<path d="M4051 9054 c0 -11 3 -14 6 -6 3 7 2 16 -1 19 -3 4 -6 -2 -5 -13z"/>
<path d="M4566 9045 c-3 -9 -2 -13 4 -10 6 3 10 2 10 -3 0 -6 8 -13 17 -16 14
-6 14 -4 -2 16 -11 13 -20 24 -21 26 -1 2 -4 -4 -8 -13z"/>
<path d="M3510 9039 c0 -5 5 -7 10 -4 6 3 10 8 10 11 0 2 -4 4 -10 4 -5 0 -10
-5 -10 -11z"/>
<path d="M3608 9043 c7 -3 16 -2 19 1 4 3 -2 6 -13 5 -11 0 -14 -3 -6 -6z"/>
<path d="M3760 9020 c0 -11 2 -20 4 -20 2 0 6 9 9 20 3 11 1 20 -4 20 -5 0 -9
-9 -9 -20z"/>
<path d="M3791 9023 c-16 -31 -14 -50 4 -27 10 13 14 15 15 5 0 -8 2 -12 5 -9
3 3 2 16 -3 29 l-9 23 -12 -21z"/>
<path d="M3850 9030 c0 -5 5 -10 10 -10 6 0 10 5 10 10 0 6 -4 10 -10 10 -5 0
-10 -4 -10 -10z"/>
<path d="M3890 9036 c0 -2 8 -10 18 -17 15 -13 16 -12 3 4 -13 16 -21 21 -21
13z"/>
<path d="M3463 9020 c-13 -5 -23 -6 -23 -2 0 4 -5 0 -10 -8 -11 -18 -14 -40
-2 -25 10 15 63 37 71 30 3 -3 -1 -10 -8 -15 -11 -6 -10 -9 5 -14 10 -3 1 -3
-21 -1 -29 3 -35 2 -20 -5 21 -9 65 -13 65 -6 0 14 -21 56 -27 55 -5 0 -18 -4
-30 -9z"/>
<path d="M4084 9013 c2 -9 8 -19 15 -21 10 -3 10 0 2 17 -14 25 -20 27 -17 4z"/>
<path d="M6630 9016 c6 -8 20 -12 31 -9 25 7 21 10 -15 17 -22 4 -25 2 -16 -8z"/>
<path d="M6683 9005 c-10 -11 -9 -13 6 -12 11 1 17 7 14 14 -6 16 -5 16 -20
-2z"/>
<path d="M3875 9000 c3 -5 8 -10 11 -10 2 0 4 5 4 10 0 6 -5 10 -11 10 -5 0
-7 -4 -4 -10z"/>
<path d="M6582 8998 c-7 -7 -12 -23 -11 -37 l1 -26 11 28 c6 15 15 27 20 27 5
0 6 -8 2 -17 -5 -14 -3 -15 6 -6 12 12 6 43 -9 43 -4 0 -13 -5 -20 -12z"/>
<path d="M3841 8988 c8 -7 20 -20 27 -27 7 -9 12 -10 12 -4 0 15 -28 43 -43
43 -6 0 -5 -5 4 -12z"/>
<path d="M6712 8983 c-8 -8 -9 -13 -2 -13 6 0 9 -4 6 -8 -2 -4 -1 -14 3 -21 6
-9 11 -10 15 -2 4 6 1 11 -6 11 -9 1 -8 4 3 13 12 9 13 15 5 23 -9 8 -15 7
-24 -3z"/>
<path d="M3898 8966 c-5 -26 7 -36 50 -42 12 -1 20 2 17 7 -4 5 -18 9 -32 9
-22 0 -24 3 -19 25 4 14 2 25 -3 25 -5 0 -11 -11 -13 -24z"/>
<path d="M3375 8970 c-3 -6 1 -7 9 -4 18 7 21 14 7 14 -6 0 -13 -4 -16 -10z"/>
<path d="M3752 8964 c-7 -8 -8 -14 -3 -14 10 0 25 19 20 25 -2 1 -10 -3 -17
-11z"/>
<path d="M4100 8955 c1 -26 2 -28 11 -12 8 14 8 22 0 30 -8 8 -11 3 -11 -18z"/>
<path d="M3438 8963 c7 -3 16 -2 19 1 4 3 -2 6 -13 5 -11 0 -14 -3 -6 -6z"/>
<path d="M3630 8949 c0 -4 7 -10 16 -13 8 -3 12 -10 9 -16 -7 -12 54 -13 73
-2 7 5 10 16 6 25 -7 18 -24 23 -24 7 0 -5 5 -10 11 -10 5 0 7 -4 4 -10 -3 -5
-18 -10 -33 -10 -21 0 -24 2 -12 10 13 8 12 10 -2 10 -10 0 -18 4 -18 8 0 5
-7 9 -15 9 -8 0 -15 -4 -15 -8z"/>
<path d="M3780 8945 c0 -9 -6 -12 -15 -9 -8 4 -15 1 -15 -7 0 -7 3 -9 7 -6 3
4 12 2 20 -4 10 -9 13 -6 13 15 0 14 -2 26 -5 26 -3 0 -5 -7 -5 -15z"/>
<path d="M3980 8945 c7 -9 15 -13 17 -11 7 7 -7 26 -19 26 -6 0 -6 -6 2 -15z"/>
<path d="M6520 8950 c0 -5 5 -10 11 -10 5 0 7 5 4 10 -3 6 -8 10 -11 10 -2 0
-4 -4 -4 -10z"/>
<path d="M3338 8943 c7 -3 16 -2 19 1 4 3 -2 6 -13 5 -11 0 -14 -3 -6 -6z"/>
<path d="M3600 8940 c0 -5 9 -14 20 -20 11 -6 20 -7 20 -3 0 5 -9 14 -20 21
-11 7 -20 8 -20 2z"/>
<path d="M6787 8921 c-4 -17 -3 -21 5 -13 5 5 8 16 6 23 -3 8 -7 3 -11 -10z"/>
<path d="M3264 8923 c4 -6 0 -13 -6 -16 -10 -4 -11 -7 0 -18 20 -21 35 3 16
27 -8 10 -13 14 -10 7z"/>
<path d="M3340 8920 c0 -5 5 -10 10 -10 6 0 10 5 10 10 0 6 -4 10 -10 10 -5 0
-10 -4 -10 -10z"/>
<path d="M4083 8912 c2 -12 6 -24 10 -28 3 -4 4 4 2 16 -6 30 -16 40 -12 12z"/>
<path d="M6525 8920 c3 -5 8 -10 11 -10 2 0 4 5 4 10 0 6 -5 10 -11 10 -5 0
-7 -4 -4 -10z"/>
<path d="M3308 8913 c7 -3 16 -2 19 1 4 3 -2 6 -13 5 -11 0 -14 -3 -6 -6z"/>
<path d="M6740 8910 c0 -8 8 -24 16 -35 16 -19 16 -19 9 5 -9 31 -25 50 -25
30z"/>
<path d="M3604 8891 c0 -11 4 -17 8 -15 4 3 12 -6 18 -20 12 -33 19 -33 12 -1
-2 14 -8 25 -13 25 -5 0 -9 7 -9 15 0 8 -4 15 -8 15 -4 0 -8 -9 -8 -19z"/>
<path d="M3760 8899 c0 -5 7 -12 16 -16 13 -5 13 -8 2 -15 -9 -6 -6 -7 10 -3
12 4 22 3 21 -2 -1 -4 0 -11 1 -15 1 -5 3 -12 4 -18 2 -19 19 -15 22 6 3 15
-8 28 -36 47 -22 14 -40 21 -40 16z m70 -49 c0 -5 -2 -10 -4 -10 -3 0 -8 5
-11 10 -3 6 -1 10 4 10 6 0 11 -4 11 -10z"/>
<path d="M3935 8900 c3 -5 11 -10 16 -10 6 0 7 5 4 10 -3 6 -11 10 -16 10 -6
0 -7 -4 -4 -10z"/>
<path d="M3210 8890 c0 -6 7 -10 15 -10 8 0 15 2 15 4 0 2 -7 6 -15 10 -8 3
-15 1 -15 -4z"/>
<path d="M3305 8890 c3 -5 10 -10 16 -10 5 0 9 5 9 10 0 6 -7 10 -16 10 -8 0
-12 -4 -9 -10z"/>
<path d="M3978 8890 c-3 -8 2 -20 11 -27 13 -10 13 -12 2 -13 -12 0 -11 -3 3
-13 9 -7 22 -23 29 -36 7 -14 19 -26 27 -28 13 -4 13 -3 0 6 -8 6 -11 11 -6
11 5 0 3 6 -3 14 -10 11 -8 19 5 35 10 11 22 17 27 14 6 -3 7 -1 3 5 -8 14
-42 0 -48 -20 -3 -7 -9 -8 -18 -3 -10 6 -9 11 5 21 10 8 15 17 11 21 -4 4 -11
1 -16 -7 -7 -12 -11 -10 -18 10 -6 17 -10 20 -14 10z"/>
<path d="M6890 8880 c0 -6 -5 -8 -12 -4 -7 4 -8 3 -4 -4 9 -14 36 -16 36 -3 0
6 -4 13 -10 16 -5 3 -10 1 -10 -5z"/>
<path d="M3523 8860 c-1 -11 2 -18 8 -15 11 7 12 35 1 35 -4 0 -8 -9 -9 -20z"/>
<path d="M3560 8870 c10 -7 11 -10 3 -10 -7 0 -13 -4 -13 -10 0 -16 14 -12 26
8 10 15 8 18 -10 20 -16 1 -18 -1 -6 -8z"/>
<path d="M3145 8859 c-4 -6 -14 -8 -22 -5 -8 4 -11 2 -7 -5 4 -6 0 -15 -7 -20
-8 -5 -9 -9 -3 -9 6 0 21 11 34 25 13 14 21 25 17 25 -3 0 -9 -5 -12 -11z"/>
<path d="M3185 8860 c3 -5 8 -10 11 -10 2 0 4 5 4 10 0 6 -5 10 -11 10 -5 0
-7 -4 -4 -10z"/>
<path d="M3609 8845 c-4 -14 1 -26 17 -38 19 -14 23 -15 18 -2 -3 8 -10 15
-14 15 -5 0 -10 10 -12 23 -3 21 -4 21 -9 2z"/>
<path d="M6900 8850 c-18 -6 -20 -8 -7 -9 10 -1 16 -5 13 -10 -3 -5 5 -8 19
-7 14 0 27 6 29 12 3 7 -4 10 -17 7 -18 -4 -19 -3 -7 6 17 12 6 13 -30 1z"/>
<path d="M3143 8825 c-19 -22 -1 -25 21 -4 14 14 16 19 5 19 -8 -1 -20 -7 -26
-15z"/>
<path d="M4065 8830 c-3 -5 -1 -10 4 -10 6 0 11 5 11 10 0 6 -2 10 -4 10 -3 0
-8 -4 -11 -10z"/>
<path d="M3065 8820 c-3 -5 -1 -10 4 -10 6 0 11 5 11 10 0 6 -2 10 -4 10 -3 0
-8 -4 -11 -10z"/>
<path d="M3240 8790 c0 -5 4 -10 9 -10 6 0 13 5 16 10 3 6 -1 10 -9 10 -9 0
-16 -4 -16 -10z"/>
<path d="M3446 8787 c3 -10 9 -15 12 -12 3 3 0 11 -7 18 -10 9 -11 8 -5 -6z"/>
<path d="M3477 8780 c3 -11 13 -20 22 -19 10 0 11 2 4 6 -7 2 -13 11 -13 19 0
8 -4 14 -9 14 -5 0 -7 -9 -4 -20z"/>
<path d="M3500 8790 c0 -5 5 -10 11 -10 5 0 7 5 4 10 -3 6 -8 10 -11 10 -2 0
-4 -4 -4 -10z"/>
<path d="M3280 8780 c0 -5 4 -10 9 -10 6 0 13 5 16 10 3 6 -1 10 -9 10 -9 0
-16 -4 -16 -10z"/>
<path d="M2972 8771 c-10 -6 -7 -10 12 -13 16 -3 25 -1 23 5 -5 15 -20 18 -35
8z"/>
<path d="M3527 8765 c-4 -8 -2 -17 3 -20 6 -4 10 3 10 14 0 25 -6 27 -13 6z"/>
<path d="M7048 8773 c6 -2 18 -2 25 0 6 3 1 5 -13 5 -14 0 -19 -2 -12 -5z"/>
<path d="M2946 8746 c5 -13 4 -17 -4 -12 -7 4 -12 2 -12 -3 0 -14 17 -14 26 0
3 6 1 16 -5 22 -9 9 -10 7 -5 -7z"/>
<path d="M3031 8744 c0 -11 3 -14 6 -6 3 7 2 16 -1 19 -3 4 -6 -2 -5 -13z"/>
<path d="M3265 8751 c6 -5 26 -12 45 -16 23 -5 32 -4 25 3 -5 5 -26 12 -45 16
-21 4 -31 3 -25 -3z"/>
<path d="M7051 8744 c-1 -11 2 -23 5 -27 10 -10 44 16 43 33 0 10 -2 11 -6 3
-2 -7 -11 -13 -18 -13 -7 0 -16 6 -18 13 -3 6 -6 3 -6 -9z"/>
<path d="M3210 8735 c0 -8 5 -15 10 -15 6 0 10 7 10 15 0 8 -4 15 -10 15 -5 0
-10 -7 -10 -15z"/>
<path d="M2970 8730 c0 -5 5 -10 10 -10 6 0 10 5 10 10 0 6 -4 10 -10 10 -5 0
-10 -4 -10 -10z"/>
<path d="M7110 8730 c0 -6 7 -10 15 -10 8 0 15 2 15 4 0 2 -7 6 -15 10 -8 3
-15 1 -15 -4z"/>
<path d="M3047 8702 c1 -8 3 -19 3 -25 0 -6 7 -1 16 11 9 13 13 26 9 30 -3 3
-10 0 -14 -7 -5 -7 -11 -9 -13 -5 -3 5 -3 3 -1 -4z"/>
<path d="M3106 8708 c3 -5 10 -6 15 -3 13 9 11 12 -6 12 -8 0 -12 -4 -9 -9z"/>
<path d="M3358 8713 c7 -3 16 -2 19 1 4 3 -2 6 -13 5 -11 0 -14 -3 -6 -6z"/>
<path d="M3418 8713 c7 -3 16 -2 19 1 4 3 -2 6 -13 5 -11 0 -14 -3 -6 -6z"/>
<path d="M7086 8705 c4 -8 8 -15 10 -15 2 0 4 7 4 15 0 8 -4 15 -10 15 -5 0
-7 -7 -4 -15z"/>
<path d="M2898 8694 c-20 -10 -28 -11 -28 -3 0 7 -3 10 -6 6 -3 -3 -1 -14 5
-24 6 -10 11 -13 11 -7 0 7 11 15 25 18 14 4 25 11 25 16 0 12 1 12 -32 -6z"/>
<path d="M3170 8700 c-8 -5 -10 -10 -5 -10 6 0 17 5 25 10 8 5 11 10 5 10 -5
0 -17 -5 -25 -10z"/>
<path d="M3212 8690 c0 -14 2 -19 5 -12 2 6 2 18 0 25 -3 6 -5 1 -5 -13z"/>
<path d="M3136 8685 c4 -8 10 -15 15 -15 4 0 6 7 3 15 -4 8 -10 15 -15 15 -4
0 -6 -7 -3 -15z"/>
<path d="M3436 8693 c5 -5 12 -12 16 -18 4 -6 8 -2 8 8 0 9 -7 17 -17 17 -9 0
-12 -3 -7 -7z"/>
<path d="M7114 8681 c3 -14 1 -30 -4 -36 -7 -8 -5 -12 5 -12 8 0 12 4 9 8 -2
4 0 9 4 11 4 1 2 14 -6 28 l-14 25 6 -24z"/>
<path d="M7130 8691 c0 -6 5 -13 10 -16 6 -3 10 1 10 9 0 9 -4 16 -10 16 -5 0
-10 -4 -10 -9z"/>
<path d="M7174 8680 c0 -11 3 -20 7 -20 10 0 19 27 12 34 -12 11 -19 6 -19
-14z"/>
<path d="M2844 8668 c3 -10 1 -20 -4 -23 -5 -3 -10 2 -12 10 -2 10 -9 5 -20
-15 -20 -36 -13 -38 24 -7 22 17 26 25 17 37 -9 13 -10 12 -5 -2z"/>
<path d="M3180 8667 c0 -22 34 -47 49 -38 19 12 3 34 -21 28 -14 -4 -18 -2
-14 9 3 8 1 14 -4 14 -6 0 -10 -6 -10 -13z"/>
<path d="M3230 8676 c0 -2 7 -6 15 -10 8 -3 15 -1 15 4 0 6 -7 10 -15 10 -8 0
-15 -2 -15 -4z"/>
<path d="M7208 8669 c-3 -9 -1 -22 5 -28 15 -15 -7 -15 -35 0 -29 16 -33 4 -4
-14 20 -13 29 -14 50 -4 25 12 36 37 15 37 -5 0 -7 -4 -4 -10 3 -5 2 -10 -4
-10 -5 0 -11 10 -13 23 -3 18 -4 19 -10 6z"/>
<path d="M7067 8651 c-3 -12 -1 -21 3 -21 14 0 19 15 11 29 -6 9 -10 7 -14 -8z"/>
<path d="M3065 8649 c-4 -6 -4 -13 -1 -16 3 -4 6 -1 6 5 0 7 4 12 10 12 5 0 7
-8 4 -17 -5 -15 -4 -15 4 -3 11 15 7 30 -8 30 -5 0 -12 -5 -15 -11z"/>
<path d="M3242 8621 c-9 -26 -9 -28 17 -22 22 4 23 6 6 9 -17 4 -18 6 -4 11
14 5 15 8 4 18 -11 10 -15 7 -23 -16z"/>
<path d="M2893 8625 c2 -5 10 -10 18 -11 24 -1 49 -16 43 -25 -3 -5 0 -9 5 -9
16 0 13 20 -3 26 -8 3 -13 11 -10 18 4 9 -5 13 -25 12 -17 -1 -29 -5 -28 -11z"/>
<path d="M2980 8620 c0 -5 5 -10 10 -10 6 0 10 5 10 10 0 6 -4 10 -10 10 -5 0
-10 -4 -10 -10z"/>
<path d="M3035 8619 c-4 -6 -5 -12 -2 -15 2 -3 7 2 10 11 7 17 1 20 -8 4z"/>
<path d="M2824 8605 c-14 -11 -15 -14 -4 -14 8 0 24 6 34 14 15 11 16 15 5 15
-8 0 -24 -7 -35 -15z"/>
<path d="M7066 8605 c-3 -8 -1 -15 4 -15 6 0 10 7 10 15 0 8 -2 15 -4 15 -2 0
-6 -7 -10 -15z"/>
<path d="M7090 8609 c0 -5 5 -7 10 -4 6 3 10 0 10 -7 0 -13 50 -42 58 -33 3 2
-7 10 -22 16 -37 17 -32 29 6 18 18 -5 35 -9 37 -9 2 0 1 -13 -2 -29 -4 -21
-1 -33 11 -43 15 -11 15 -11 5 3 -15 19 -6 59 13 59 17 0 18 -17 2 -23 -7 -3
-8 -6 -3 -6 6 0 17 4 25 10 11 8 12 12 3 16 -20 7 -15 20 10 28 12 3 17 8 11
11 -6 2 -23 -2 -39 -10 -25 -13 -31 -13 -49 0 -24 16 -86 19 -86 3z"/>
<path d="M7280 8595 c-24 -13 -24 -14 -3 -12 12 1 25 7 27 14 6 16 7 16 -24
-2z"/>
<path d="M2778 8593 c7 -3 16 -2 19 1 4 3 -2 6 -13 5 -11 0 -14 -3 -6 -6z"/>
<path d="M2737 8577 c-3 -9 -2 -17 3 -17 5 0 7 -8 3 -17 -4 -12 1 -10 16 7 18
20 21 21 17 6 -5 -16 -4 -17 8 -7 8 7 21 9 28 5 10 -6 9 -3 -1 9 -16 20 -51
23 -52 5 0 -7 -4 -4 -8 6 -7 18 -8 18 -14 3z"/>
<path d="M2878 8583 c12 -2 30 -2 40 0 9 3 -1 5 -23 4 -22 0 -30 -2 -17 -4z"/>
<path d="M3028 8566 c-17 -23 -17 -24 0 -22 9 2 18 13 20 24 4 28 1 27 -20 -2z"/>
<path d="M2991 8564 c0 -11 3 -14 6 -6 3 7 2 16 -1 19 -3 4 -6 -2 -5 -13z"/>
<path d="M7363 8555 c0 -8 4 -12 9 -9 5 3 6 10 3 15 -9 13 -12 11 -12 -6z"/>
<path d="M2714 8524 c4 -11 2 -15 -6 -11 -7 2 -19 -2 -26 -9 -7 -8 -10 -14 -7
-14 4 0 -3 -16 -15 -35 -12 -19 -17 -35 -11 -35 6 0 11 7 11 15 0 8 4 15 9 15
5 0 12 11 15 25 4 14 11 23 16 20 5 -3 11 -1 15 5 4 6 11 8 16 5 5 -4 9 -1 9
4 0 6 -5 11 -11 11 -5 0 -7 5 -4 10 3 6 1 10 -5 10 -7 0 -9 -7 -6 -16z"/>
<path d="M3051 8529 c0 -9 6 -22 14 -29 10 -9 15 -9 15 -1 0 6 -4 11 -9 11 -5
0 -12 8 -14 18 -4 14 -5 14 -6 1z"/>
<path d="M7217 8519 c4 -13 8 -18 11 -10 2 7 -1 18 -6 23 -8 8 -9 4 -5 -13z"/>
<path d="M7155 8441 c-4 -13 1 -27 14 -40 15 -15 21 -33 20 -58 -1 -38 -1 -38
-9 -8 l-8 30 -1 -30 c0 -16 3 -37 9 -45 7 -11 11 -9 19 13 14 36 18 34 13 -6
-2 -18 1 -48 6 -67 8 -29 9 -24 6 35 -1 38 -8 71 -13 73 -6 2 -11 11 -11 20 0
15 2 15 10 2 6 -9 10 -10 10 -3 0 7 -8 17 -17 22 -10 6 -14 11 -9 11 5 0 -2 9
-15 21 -18 15 -20 22 -10 28 8 6 9 11 3 15 -6 3 -13 -3 -17 -13z"/>
<path d="M2622 8390 c0 -14 2 -19 5 -12 2 6 2 18 0 25 -3 6 -5 1 -5 -13z"/>
<path d="M7147 8376 c-4 -15 -6 -31 -2 -34 10 -10 16 6 13 35 l-3 28 -8 -29z"/>
<path d="M7161 8264 c0 -11 3 -14 6 -6 3 7 2 16 -1 19 -3 4 -6 -2 -5 -13z"/>
<path d="M7189 8232 c-4 -73 -4 -90 2 -117 5 -20 6 -9 4 30 -1 33 2 66 8 73 7
9 7 16 -1 24 -9 9 -12 7 -13 -10z"/>
<path d="M2581 8214 c0 -11 3 -14 6 -6 3 7 2 16 -1 19 -3 4 -6 -2 -5 -13z"/>
<path d="M7242 8210 c0 -14 2 -19 5 -12 2 6 2 18 0 25 -3 6 -5 1 -5 -13z"/>
<path d="M7161 8204 c0 -11 3 -14 6 -6 3 7 2 16 -1 19 -3 4 -6 -2 -5 -13z"/>
<path d="M7211 8148 c-1 -46 4 -48 18 -8 5 17 6 28 1 25 -4 -3 -11 1 -13 7 -3
7 -6 -4 -6 -24z"/>
<path d="M7631 8114 c0 -11 3 -14 6 -6 3 7 2 16 -1 19 -3 4 -6 -2 -5 -13z"/>
<path d="M7235 8080 c-4 -23 -5 -43 -2 -46 2 -3 7 14 11 37 4 23 5 44 2 46 -2
2 -7 -14 -11 -37z"/>
<path d="M7307 8101 c-5 -22 18 -37 29 -19 4 7 3 8 -4 4 -7 -4 -12 -1 -12 8 0
8 6 17 13 19 7 4 6 6 -4 6 -9 1 -19 -8 -22 -18z"/>
<path d="M7206 8040 c4 -25 10 -49 14 -53 4 -5 4 13 -1 39 -12 61 -22 72 -13
14z"/>
<path d="M7311 8035 c-1 -11 -4 -31 -6 -45 -4 -18 -3 -20 3 -7 4 10 12 18 17
17 6 0 11 7 12 17 2 15 1 15 -6 -2 -8 -18 -9 -17 -13 10 -3 17 -6 21 -7 10z"/>
<path d="M2940 8013 c0 -6 4 -14 9 -17 5 -3 7 -14 4 -24 -3 -12 1 -19 11 -19
21 0 20 6 -4 42 -11 17 -20 25 -20 18z"/>
<path d="M2974 7995 c8 -16 19 -41 25 -55 10 -23 10 -22 5 10 -3 19 -15 44
-26 55 -19 20 -19 20 -4 -10z"/>
<path d="M7242 8000 c0 -14 2 -19 5 -12 2 6 2 18 0 25 -3 6 -5 1 -5 -13z"/>
<path d="M2930 7973 c0 -10 -3 -28 -6 -40 -4 -13 -2 -23 3 -23 5 0 10 18 11
40 2 22 0 40 -3 40 -3 0 -5 -8 -5 -17z"/>
<path d="M3018 7953 c5 -21 7 -23 10 -9 2 10 0 22 -6 28 -6 6 -7 0 -4 -19z"/>
<path d="M7231 7939 c0 -13 4 -33 9 -44 7 -14 8 -8 3 20 -7 46 -13 59 -12 24z"/>
<path d="M2963 7933 c-21 -8 -15 -22 7 -16 11 3 20 9 20 14 0 10 -8 10 -27 2z"/>
<path d="M7692 7890 c-2 -31 1 -40 13 -40 10 0 13 -5 9 -12 -4 -7 -3 -8 4 -4
7 4 12 2 12 -3 0 -6 -9 -11 -20 -11 -13 0 -20 -6 -19 -17 0 -11 3 -13 6 -5 2
6 13 12 24 12 20 0 27 34 9 45 -5 3 -10 14 -10 24 0 9 -6 25 -12 34 -11 15
-13 12 -16 -23z m15 -22 c-3 -8 -6 -5 -6 6 -1 11 2 17 5 13 3 -3 4 -12 1 -19z"/>
<path d="M3053 7906 c-9 -11 -8 -18 7 -31 11 -10 17 -22 14 -26 -3 -5 0 -9 5
-9 15 0 14 12 -3 35 -8 11 -12 25 -9 32 6 17 1 16 -14 -1z"/>
<path d="M3080 7901 c0 -6 4 -13 10 -16 6 -3 7 1 4 9 -7 18 -14 21 -14 7z"/>
<path d="M2930 7876 c0 -15 20 -44 20 -29 0 6 2 18 5 26 4 8 0 14 -10 14 -8 0
-15 -5 -15 -11z"/>
<path d="M7290 7864 c0 -8 5 -12 10 -9 6 3 10 10 10 16 0 5 -4 9 -10 9 -5 0
-10 -7 -10 -16z"/>
<path d="M2900 7861 c0 -6 5 -13 10 -16 6 -3 10 1 10 9 0 9 -4 16 -10 16 -5 0
-10 -4 -10 -9z"/>
<path d="M3040 7861 c0 -6 5 -13 10 -16 6 -3 10 1 10 9 0 9 -4 16 -10 16 -5 0
-10 -4 -10 -9z"/>
<path d="M3120 7841 c0 -6 4 -13 10 -16 6 -3 7 1 4 9 -7 18 -14 21 -14 7z"/>
<path d="M3124 7799 c-10 -16 12 -32 30 -22 14 7 13 10 -4 21 -13 8 -21 8 -26
1z"/>
<path d="M7286 7793 c-6 -14 -5 -15 5 -6 7 7 10 15 7 18 -3 3 -9 -2 -12 -12z"/>
<path d="M3142 7761 c-11 -6 -10 -9 5 -13 10 -3 27 -9 37 -14 17 -7 17 -5 -2
14 -25 25 -23 24 -40 13z"/>
<path d="M2857 7746 c-17 -13 -17 -14 1 -18 12 -4 18 1 18 13 0 11 0 19 -1 19
0 0 -8 -7 -18 -14z"/>
<path d="M7756 7741 c-3 -5 1 -11 9 -14 9 -4 12 -1 8 9 -6 16 -10 17 -17 5z"/>
<path d="M3144 7716 c23 -18 36 -20 36 -6 0 6 -4 10 -9 10 -5 0 -18 3 -28 6
-16 5 -16 4 1 -10z"/>
<path d="M7754 7694 c-1 -13 2 -24 7 -24 11 0 12 37 2 43 -5 3 -9 -6 -9 -19z"/>
<path d="M2860 7690 c6 -11 12 -20 14 -20 2 0 2 9 -1 20 -3 11 -9 20 -15 20
-5 0 -4 -9 2 -20z"/>
<path d="M3121 7694 c0 -11 3 -14 6 -6 3 7 2 16 -1 19 -3 4 -6 -2 -5 -13z"/>
<path d="M2834 7668 c-10 -15 -12 -58 -3 -52 6 4 18 64 13 64 -2 0 -6 -5 -10
-12z"/>
<path d="M3202 7660 c-1 -29 15 -53 36 -57 24 -3 30 12 8 20 -8 3 -17 1 -20
-6 -3 -7 -4 4 -1 23 4 25 3 29 -4 15 l-8 -20 -5 20 c-3 11 -6 13 -6 5z"/>
<path d="M7760 7660 c-12 -8 -10 -10 8 -10 13 0 20 4 17 10 -7 12 -6 12 -25 0z"/>
<path d="M2840 7586 c0 -15 -5 -36 -10 -47 -7 -11 -7 -19 -1 -19 16 0 35 70
22 83 -8 8 -11 4 -11 -17z"/>
<path d="M2816 7584 c-4 -9 -4 -19 -1 -22 2 -3 7 3 11 12 4 9 4 19 1 22 -2 3
-7 -3 -11 -12z"/>
<path d="M2872 7570 c0 -14 2 -19 5 -12 2 6 2 18 0 25 -3 6 -5 1 -5 -13z"/>
<path d="M3285 7550 c-3 -5 -1 -10 4 -10 6 0 11 5 11 10 0 6 -2 10 -4 10 -3 0
-8 -4 -11 -10z"/>
<path d="M2790 7524 c0 -8 5 -12 10 -9 6 3 10 10 10 16 0 5 -4 9 -10 9 -5 0
-10 -7 -10 -16z"/>
<path d="M3295 7512 c-13 -9 -16 -64 -4 -56 5 3 9 17 10 32 l1 27 8 -25 8 -25
1 28 c1 27 -6 33 -24 19z"/>
<path d="M3327 7470 c-3 -11 -1 -20 4 -20 5 0 9 9 9 20 0 11 -2 20 -4 20 -2 0
-6 -9 -9 -20z"/>
<path d="M2960 7436 c0 -2 7 -6 15 -10 8 -3 15 -1 15 4 0 6 -7 10 -15 10 -8 0
-15 -2 -15 -4z"/>
<path d="M3106 7428 c3 -5 10 -6 15 -3 13 9 11 12 -6 12 -8 0 -12 -4 -9 -9z"/>
<path d="M3146 7425 c4 -8 8 -15 10 -15 2 0 4 7 4 15 0 8 -4 15 -10 15 -5 0
-7 -7 -4 -15z"/>
<path d="M3185 7432 c-14 -10 -15 -40 -1 -45 6 -3 11 7 11 24 0 16 0 29 0 29
0 0 -4 -4 -10 -8z"/>
<path d="M3000 7423 c0 -4 5 -15 10 -23 8 -13 10 -13 10 2 0 9 -4 20 -10 23
-5 3 -10 3 -10 -2z"/>
<path d="M2767 7413 c6 -4 13 -22 16 -38 4 -27 5 -27 3 4 0 21 -7 36 -16 38
-10 3 -11 2 -3 -4z"/>
<path d="M2961 7404 c0 -11 3 -14 6 -6 3 7 2 16 -1 19 -3 4 -6 -2 -5 -13z"/>
<path d="M7862 7375 c0 -16 2 -22 5 -12 2 9 2 23 0 30 -3 6 -5 -1 -5 -18z"/>
<path d="M2972 7378 c-7 -7 -11 -23 -11 -37 2 -25 2 -25 6 -3 3 13 11 26 19
29 15 5 20 23 6 23 -4 0 -13 -5 -20 -12z"/>
<path d="M2755 7371 c-3 -5 -1 -12 5 -16 5 -3 10 1 10 9 0 18 -6 21 -15 7z"/>
<path d="M3369 7363 c0 -5 -1 -24 -2 -43 -2 -33 0 -35 31 -35 35 0 42 9 15 20
-10 3 -19 1 -21 -4 -2 -6 -8 -11 -13 -11 -11 0 0 54 13 58 10 5 0 22 -13 22
-5 0 -9 -3 -10 -7z"/>
<path d="M2985 7350 c3 -5 8 -10 11 -10 2 0 4 5 4 10 0 6 -5 10 -11 10 -5 0
-7 -4 -4 -10z"/>
<path d="M3260 7348 c0 -12 -5 -15 -16 -11 -12 4 -10 -2 7 -20 27 -32 26 -31
26 -12 0 8 -4 12 -9 9 -4 -3 -8 -1 -8 5 0 5 4 11 10 13 6 2 6 8 0 18 -8 13
-10 13 -10 -2z"/>
<path d="M2740 7330 c0 -5 7 -10 16 -10 8 0 12 5 9 10 -3 6 -10 10 -16 10 -5
0 -9 -4 -9 -10z"/>
<path d="M3010 7330 c0 -8 -3 -25 -6 -37 -4 -15 -2 -23 7 -23 7 0 9 3 6 6 -3
4 -2 14 3 23 5 10 5 23 -1 32 -7 12 -9 12 -9 -1z"/>
<path d="M3400 7330 c0 -5 5 -10 11 -10 5 0 7 5 4 10 -3 6 -8 10 -11 10 -2 0
-4 -4 -4 -10z"/>
<path d="M2785 7320 c3 -5 8 -10 11 -10 2 0 4 5 4 10 0 6 -5 10 -11 10 -5 0
-7 -4 -4 -10z"/>
<path d="M7876 7314 c-4 -9 -4 -19 -1 -22 2 -3 7 3 11 12 4 9 4 19 1 22 -2 3
-7 -3 -11 -12z"/>
<path d="M2970 7296 c-15 -39 -12 -46 6 -13 9 16 13 31 10 34 -3 3 -10 -6 -16
-21z"/>
<path d="M2737 7293 c-2 -5 -1 -21 3 -38 l6 -30 6 28 c3 15 1 27 -4 27 -5 0
-6 5 -3 10 3 6 4 10 1 10 -3 0 -7 -3 -9 -7z"/>
<path d="M2784 7286 c-6 -6 -8 -20 -4 -31 6 -16 8 -15 13 10 6 35 6 37 -9 21z"/>
<path d="M3294 7268 c12 -7 21 -7 28 0 6 6 0 10 -18 10 -23 0 -24 -2 -10 -10z"/>
<path d="M3011 7230 c-6 -18 -6 -30 0 -30 5 0 9 8 9 18 0 10 5 23 12 30 8 8 8
12 1 12 -6 0 -16 -13 -22 -30z"/>
<path d="M3330 7249 c0 -5 5 -7 10 -4 6 3 10 8 10 11 0 2 -4 4 -10 4 -5 0 -10
-5 -10 -11z"/>
<path d="M2971 7218 c0 -28 2 -30 9 -13 12 28 12 45 0 45 -5 0 -10 -15 -9 -32z"/>
<path d="M7871 7234 c0 -11 3 -14 6 -6 3 7 2 16 -1 19 -3 4 -6 -2 -5 -13z"/>
<path d="M2791 7214 c0 -11 3 -14 6 -6 3 7 2 16 -1 19 -3 4 -6 -2 -5 -13z"/>
<path d="M3437 7208 c-10 -11 -25 -17 -32 -14 -8 3 -17 1 -20 -4 -4 -6 1 -10
10 -10 11 0 15 -5 12 -14 -3 -8 1 -17 10 -20 12 -5 14 -1 9 19 -6 23 6 36 17
18 2 -5 2 -2 1 4 -2 7 4 16 13 21 8 5 12 11 7 14 -5 3 -17 -4 -27 -14z"/>
<path d="M2992 7170 c0 -14 2 -19 5 -12 2 6 2 18 0 25 -3 6 -5 1 -5 -13z"/>
<path d="M3012 7165 c0 -16 2 -22 5 -12 2 9 2 23 0 30 -3 6 -5 -1 -5 -18z"/>
<path d="M7896 7168 c-3 -13 -5 -39 -5 -58 1 -27 3 -22 9 20 9 58 7 77 -4 38z"/>
<path d="M2961 7164 c0 -11 3 -14 6 -6 3 7 2 16 -1 19 -3 4 -6 -2 -5 -13z"/>
<path d="M3460 7163 c0 -7 4 -13 9 -13 5 0 11 6 14 13 3 8 -1 14 -9 14 -8 0
-14 -6 -14 -14z"/>
<path d="M3446 7135 c11 -47 21 -68 42 -91 12 -12 18 -25 14 -30 -4 -4 -2 -4
5 0 13 7 7 36 -8 36 -5 0 -9 7 -9 16 0 14 3 14 15 4 9 -8 15 -8 15 -2 0 6 -6
13 -12 15 -9 4 -9 8 -3 14 13 11 17 33 6 33 -5 0 -11 -9 -14 -20 -6 -24 -37
-17 -37 9 0 9 -5 23 -10 31 -8 11 -9 7 -4 -15z"/>
<path d="M2968 7111 c-5 -18 -5 -37 -2 -42 3 -6 0 -16 -6 -24 -9 -11 -9 -15
-1 -15 6 0 11 5 11 11 0 5 4 8 9 5 5 -3 7 -16 4 -29 -3 -15 -2 -18 5 -9 5 7 9
34 9 60 1 36 -1 41 -7 22 -6 -22 -8 -21 -11 15 l-4 40 -7 -34z"/>
<path d="M3476 7125 c4 -8 8 -15 10 -15 2 0 4 7 4 15 0 8 -4 15 -10 15 -5 0
-7 -7 -4 -15z"/>
<path d="M7930 7104 c0 -10 -7 -32 -15 -48 -13 -24 -13 -27 -1 -17 16 14 31
69 22 78 -3 4 -6 -2 -6 -13z"/>
<path d="M2700 7096 c0 -8 -3 -23 -6 -33 -5 -16 -4 -16 10 1 18 22 21 46 6 46
-5 0 -10 -6 -10 -14z"/>
<path d="M2672 7035 c0 -16 2 -22 5 -12 2 9 2 23 0 30 -3 6 -5 -1 -5 -18z"/>
<path d="M3535 7033 c2 -17 1 -33 -3 -36 -4 -2 -1 -2 6 0 9 2 11 -3 8 -15 -3
-9 -1 -24 5 -32 9 -13 10 -13 6 0 -2 8 0 25 4 38 6 14 5 21 -1 17 -5 -3 -14 9
-20 27 l-10 33 5 -32z"/>
<path d="M2709 7046 c-2 -2 -2 -33 0 -68 2 -44 6 -57 12 -43 6 16 8 11 8 -18
1 -23 -3 -36 -9 -32 -5 3 -10 -1 -10 -10 0 -9 5 -13 10 -10 15 9 11 -36 -5
-65 -8 -14 -14 -32 -14 -40 0 -8 6 0 14 18 8 17 19 32 26 32 6 0 9 6 6 13 -3
7 4 24 14 38 10 13 18 31 18 39 -1 13 -1 13 -6 0 -8 -18 -29 -40 -35 -35 -2 2
-2 23 1 47 4 41 5 42 12 13 l7 -30 1 28 c1 27 15 36 24 17 3 -6 4 -5 3 2 -1 7
-15 14 -30 15 -36 3 -34 1 -37 51 -3 44 -3 44 -10 38z"/>
<path d="M2810 7023 c0 -21 15 -23 28 -3 10 16 8 18 -8 17 -11 -1 -20 -7 -20
-14z"/>
<path d="M2900 7026 c7 -7 13 -7 20 0 6 6 3 10 -10 10 -13 0 -16 -4 -10 -10z"/>
<path d="M7931 7029 c0 -9 -3 -38 -6 -65 -4 -35 -3 -43 4 -29 9 18 10 17 10
-7 1 -16 -3 -28 -9 -28 -5 0 -10 -8 -10 -17 1 -16 2 -16 15 1 15 19 15 19 15
-2 0 -13 -7 -25 -15 -28 -8 -4 -15 -13 -15 -21 0 -8 5 -11 10 -8 6 4 10 -6 10
-24 0 -16 4 -32 10 -36 5 -3 7 13 3 43 -3 32 -1 52 6 56 8 5 8 13 0 28 -6 11
-9 37 -5 57 3 24 2 31 -4 21 -5 -8 -12 -11 -16 -7 -4 4 1 16 11 27 10 11 13
20 7 20 -6 0 -13 8 -15 18 -4 14 -5 14 -6 1z"/>
<path d="M2930 7004 c0 -8 5 -12 10 -9 6 3 10 10 10 16 0 5 -4 9 -10 9 -5 0
-10 -7 -10 -16z"/>
<path d="M2692 6985 c0 -16 2 -22 5 -12 2 9 2 23 0 30 -3 6 -5 -1 -5 -18z"/>
<path d="M7901 6984 c0 -11 3 -14 6 -6 3 7 2 16 -1 19 -3 4 -6 -2 -5 -13z"/>
<path d="M2660 6973 c0 -5 5 -15 10 -23 8 -12 10 -11 10 8 0 12 -4 22 -10 22
-5 0 -10 -3 -10 -7z"/>
<path d="M2968 6957 c-3 -19 -2 -25 4 -19 6 6 8 18 6 28 -3 14 -5 12 -10 -9z"/>
<path d="M3571 6964 c0 -11 3 -14 6 -6 3 7 2 16 -1 19 -3 4 -6 -2 -5 -13z"/>
<path d="M3580 6930 c18 -12 30 -13 30 -2 0 4 -10 9 -22 9 -18 2 -20 0 -8 -7z"/>
<path d="M7961 6924 c0 -11 3 -14 6 -6 3 7 2 16 -1 19 -3 4 -6 -2 -5 -13z"/>
<path d="M2686 6915 c-3 -8 -1 -15 4 -15 6 0 10 7 10 15 0 8 -2 15 -4 15 -2 0
-6 -7 -10 -15z"/>
<path d="M3586 6898 c3 -5 10 -6 15 -3 13 9 11 12 -6 12 -8 0 -12 -4 -9 -9z"/>
<path d="M2940 6886 c0 -9 5 -16 10 -16 6 0 10 4 10 9 0 6 -4 13 -10 16 -5 3
-10 -1 -10 -9z"/>
<path d="M5214 6867 c-6 -7 -13 -17 -15 -23 -7 -17 -123 -219 -129 -224 -3 -3
-16 -27 -30 -55 -14 -27 -33 -61 -42 -74 -22 -29 -24 -48 -3 -27 8 8 15 18 15
22 0 4 11 22 25 40 14 18 25 37 25 43 0 6 3 11 8 11 4 0 16 18 26 40 11 22 22
40 26 40 4 0 15 18 25 40 10 22 22 40 27 40 4 0 8 9 8 20 0 11 4 20 8 20 5 0
20 23 34 50 24 46 19 68 -8 37z"/>
<path d="M2673 6793 c0 -45 4 -80 8 -77 5 3 9 -3 9 -12 0 -10 3 -14 7 -11 3 4
1 17 -5 30 -7 12 -13 51 -15 87 -3 57 -4 55 -4 -17z"/>
<path d="M3625 6850 c3 -5 8 -10 11 -10 2 0 4 5 4 10 0 6 -5 10 -11 10 -5 0
-7 -4 -4 -10z"/>
<path d="M7972 6775 c0 -16 2 -22 5 -12 2 9 2 23 0 30 -3 6 -5 -1 -5 -18z"/>
<path d="M2732 6750 c0 -19 2 -27 5 -17 2 9 2 25 0 35 -3 9 -5 1 -5 -18z"/>
<path d="M7948 6725 c-7 -7 3 -55 11 -55 4 0 6 14 3 30 -4 32 -5 33 -14 25z"/>
<path d="M2672 6665 c0 -16 2 -22 5 -12 2 9 2 23 0 30 -3 6 -5 -1 -5 -18z"/>
<path d="M2700 6668 c0 -9 -3 -25 -6 -35 -5 -14 -4 -15 4 -3 8 10 10 -7 8 -60
-2 -41 -2 -60 1 -42 3 22 8 30 16 25 8 -4 7 -1 -1 9 -10 12 -11 26 -4 51 7 25
6 38 -4 52 -12 16 -14 16 -14 3z"/>
<path d="M7951 6634 c0 -11 3 -14 6 -6 3 7 2 16 -1 19 -3 4 -6 -2 -5 -13z"/>
<path d="M2731 6584 c0 -11 3 -14 6 -6 3 7 2 16 -1 19 -3 4 -6 -2 -5 -13z"/>
<path d="M7960 6579 c0 -20 -2 -21 -11 -9 -9 12 -10 12 -5 -3 3 -10 7 -35 7
-55 1 -29 3 -24 10 22 5 33 7 62 4 64 -3 3 -5 -6 -5 -19z"/>
<path d="M7932 6525 c-1 -12 -7 -26 -14 -33 -9 -9 -9 -12 1 -12 7 0 9 -4 6
-10 -3 -6 4 -10 17 -10 14 0 18 3 11 8 -6 4 -13 23 -16 42 -2 19 -5 26 -5 15z"/>
<path d="M2713 6483 c-8 -3 -13 -24 -12 -56 1 -45 2 -48 9 -24 5 16 6 35 3 43
-3 8 0 21 7 29 13 16 13 16 -7 8z"/>
<path d="M7900 6450 c0 -6 7 -10 15 -10 8 0 15 2 15 4 0 2 -7 6 -15 10 -8 3
-15 1 -15 -4z"/>
<path d="M7970 6445 c0 -8 5 -15 10 -15 6 0 10 7 10 15 0 8 -4 15 -10 15 -5 0
-10 -7 -10 -15z"/>
<path d="M2712 6340 c0 -14 2 -19 5 -12 2 6 2 18 0 25 -3 6 -5 1 -5 -13z"/>
<path d="M4848 6291 c-18 -17 -28 -30 -23 -30 15 0 70 47 63 54 -3 4 -21 -7
-40 -24z"/>
<path d="M4782 6235 c-12 -14 -18 -25 -14 -25 10 0 45 41 39 46 -2 2 -13 -7
-25 -21z"/>
<path d="M4393 5834 c8 -9 68 -13 63 -5 -3 4 -19 8 -37 9 -18 1 -30 0 -26 -4z"/>
<path d="M4490 5830 c0 -5 5 -10 11 -10 5 0 7 5 4 10 -3 6 -8 10 -11 10 -2 0
-4 -4 -4 -10z"/>
<path d="M4465 5778 c6 -18 4 -20 -11 -13 -40 16 -90 24 -114 18 -35 -9 -113
-53 -123 -69 -4 -8 -12 -14 -17 -14 -20 0 -160 -129 -141 -130 8 0 37 11 65
24 97 44 193 69 243 62 54 -7 138 -31 203 -56 111 -44 156 -60 165 -60 6 -1
28 -9 50 -20 22 -11 45 -19 52 -20 7 0 28 -9 48 -20 20 -11 41 -20 48 -20 7
-1 30 -9 52 -20 22 -11 45 -19 50 -20 6 0 29 -9 53 -20 53 -25 112 -51 182
-80 30 -12 71 -29 90 -38 96 -44 158 -43 228 4 55 38 56 47 9 71 -96 49 -216
103 -229 103 -7 0 -24 9 -38 20 -14 11 -32 20 -40 20 -8 0 -32 9 -53 20 -20
11 -44 20 -52 20 -9 0 -18 7 -22 15 -5 14 -8 14 -25 -2 -11 -10 -35 -18 -57
-18 -30 0 -44 8 -78 43 -22 23 -43 42 -46 42 -3 0 -27 14 -52 31 -51 35 -136
65 -391 140 -47 14 -56 12 -49 -13z"/>
<path d="M5036 5612 c6 -4 13 -14 16 -23 5 -11 14 -15 32 -12 23 5 24 7 10 21
-14 13 -17 13 -25 1 -7 -11 -9 -11 -9 4 0 10 -7 17 -17 17 -11 0 -14 -3 -7 -8z"/>
<path d="M2520 5196 c0 -41 5 -78 10 -81 6 -4 10 8 10 30 0 52 33 104 67 106
21 2 -32 16 -64 18 -22 1 -23 -3 -23 -73z"/>
<path d="M4489 5191 c-25 -9 -56 -23 -70 -31 -13 -9 -36 -22 -51 -29 -16 -8
-28 -18 -28 -23 0 -4 -5 -8 -12 -8 -10 0 -68 -57 -68 -67 0 -6 20 6 59 35 45
33 122 72 143 72 9 0 20 5 23 10 3 6 15 10 26 10 21 0 27 -20 7 -20 -7 0 -28
-20 -45 -44 -26 -34 -33 -52 -33 -90 0 -50 27 -146 40 -146 5 0 11 -8 14 -17
3 -10 25 -29 48 -42 88 -51 253 -21 300 54 15 23 18 43 15 85 -4 62 -44 160
-64 160 -7 0 -13 3 -13 8 0 12 -52 32 -82 32 -15 0 -28 5 -28 10 0 6 16 10 35
10 19 0 35 -4 35 -9 0 -5 18 -11 40 -15 22 -3 40 -10 40 -15 0 -5 15 -15 33
-22 17 -7 37 -15 42 -17 16 -6 -57 52 -80 64 -11 6 -29 15 -40 22 -76 42 -204
52 -286 23z m161 -21 c11 -7 2 -10 -33 -10 -30 0 -46 4 -42 10 8 13 55 13 75
0z"/>
<path d="M6690 5171 c-51 -27 -61 -31 -72 -31 -7 0 -26 -12 -41 -25 -21 -19
-27 -31 -22 -46 6 -19 4 -20 -17 -13 -48 18 -94 10 -121 -21 -33 -37 -34 -49
-4 -41 12 4 83 11 157 16 74 6 185 14 245 20 249 23 366 27 456 18 50 -5 94
-6 98 -3 17 18 -124 88 -209 104 -36 7 -87 17 -113 22 -58 11 -336 11 -357 0z"/>
<path d="M6536 5147 c-10 -11 -12 -17 -5 -13 8 3 22 9 32 12 9 4 17 10 17 13
0 14 -25 7 -44 -12z"/>
<path d="M6443 5143 c-7 -2 -13 -11 -13 -18 0 -16 27 -27 35 -14 4 5 2 8 -3 7
-6 -2 -10 2 -10 7 -1 6 6 9 15 7 8 -2 12 1 8 7 -7 12 -13 12 -32 4z"/>
<path d="M6480 5120 c0 -5 5 -10 10 -10 6 0 10 5 10 10 0 6 -4 10 -10 10 -5 0
-10 -4 -10 -10z"/>
<path d="M6405 5090 c-3 -6 1 -7 9 -4 18 7 21 14 7 14 -6 0 -13 -4 -16 -10z"/>
<path d="M2553 4985 c0 -22 2 -30 4 -17 2 12 2 30 0 40 -3 9 -5 -1 -4 -23z"/>
<path d="M2572 4895 c0 -16 2 -22 5 -12 2 9 2 23 0 30 -3 6 -5 -1 -5 -18z"/>
<path d="M2581 4824 c0 -11 3 -14 6 -6 3 7 2 16 -1 19 -3 4 -6 -2 -5 -13z"/>
<path d="M6632 4809 c12 -6 48 -7 105 -1 l88 9 -105 1 c-75 1 -100 -2 -88 -9z"/>
<path d="M2590 4778 c0 -15 4 -29 9 -32 5 -3 12 -20 15 -38 4 -18 15 -44 26
-58 25 -32 26 -21 1 22 -10 18 -22 49 -26 68 -10 51 -24 72 -25 38z"/>
<path d="M6577 4784 c5 -13 3 -16 -10 -11 -9 3 -17 2 -17 -4 0 -5 -11 -14 -24
-20 -45 -21 -56 -72 -33 -156 29 -114 149 -165 262 -112 54 25 59 32 73 89 16
69 0 138 -41 172 -39 33 -72 44 -154 53 -57 5 -62 4 -56 -11z"/>
<path d="M4573 4763 c9 -2 23 -2 30 0 6 3 -1 5 -18 5 -16 0 -22 -2 -12 -5z"/>
<path d="M6498 4763 c7 -3 16 -2 19 1 4 3 -2 6 -13 5 -11 0 -14 -3 -6 -6z"/>
<path d="M4678 4743 c12 -2 32 -2 45 0 12 2 2 4 -23 4 -25 0 -35 -2 -22 -4z"/>
<path d="M7352 4668 c-6 -46 -16 -123 -21 -173 -14 -126 -40 -307 -47 -325 -3
-8 -12 -57 -19 -110 -8 -52 -19 -115 -25 -140 -5 -25 -17 -81 -26 -125 -31
-153 -43 -210 -59 -275 -8 -36 -21 -87 -27 -115 -6 -27 -14 -57 -18 -65 -5 -8
-13 -40 -19 -70 -14 -62 -35 -147 -43 -170 -33 -94 -37 -135 -6 -70 11 25 29
61 39 81 11 20 19 42 19 48 0 6 8 30 19 54 33 73 82 230 120 382 20 77 26 118
51 320 5 50 15 122 20 160 32 241 70 659 61 668 -4 4 -13 -30 -19 -75z"/>
<path d="M6072 4618 c-6 -24 -13 -56 -15 -73 -3 -16 -12 -64 -22 -105 -13 -55
-18 -125 -19 -265 -1 -176 1 -196 23 -265 40 -123 74 -195 206 -435 24 -44 44
-90 44 -101 1 -20 -78 -108 -153 -171 -49 -41 -161 -43 -248 -4 -43 19 -99 42
-193 79 -60 24 -150 36 -199 27 -20 -4 -55 -24 -81 -47 -63 -56 -91 -51 -127
22 -25 49 -28 64 -25 135 2 44 7 90 12 103 9 26 -6 30 -20 4 -14 -26 -36 -73
-45 -97 -28 -73 -32 -89 -27 -121 7 -44 37 -102 71 -139 29 -31 57 -31 136 1
33 13 73 18 150 18 91 1 111 -2 149 -22 44 -23 131 -108 131 -127 0 -15 59
-35 104 -35 33 0 48 9 113 69 58 53 85 71 115 76 52 9 127 -3 154 -24 12 -9
40 -23 63 -31 39 -13 43 -12 64 9 20 20 22 32 22 129 0 76 -5 123 -18 162 -25
75 -75 173 -106 208 -62 69 -109 196 -145 397 -7 39 -20 108 -29 155 -23 118
-57 394 -57 458 0 63 -13 68 -28 10z"/>
<path d="M6428 4493 c7 -3 16 -2 19 1 4 3 -2 6 -13 5 -11 0 -14 -3 -6 -6z"/>
<path d="M3143 4418 c3 -35 11 -83 17 -108 6 -25 15 -79 20 -120 6 -41 15 -95
20 -120 6 -25 14 -79 19 -120 5 -41 16 -118 24 -170 24 -148 56 -378 63 -455
3 -38 10 -88 15 -110 5 -22 13 -85 19 -140 5 -55 14 -120 20 -145 6 -25 15
-65 20 -90 4 -25 14 -58 20 -75 7 -16 16 -46 20 -65 10 -46 38 -125 61 -173
11 -22 19 -44 19 -50 0 -22 73 -158 103 -191 9 -11 17 -23 17 -27 0 -6 108
-150 142 -189 7 -8 53 -65 102 -125 103 -127 102 -126 156 -182 22 -23 40 -44
40 -47 0 -6 5 -12 176 -187 145 -148 242 -241 325 -309 30 -25 56 -47 59 -50
8 -9 132 -104 151 -115 9 -5 36 -23 60 -40 101 -68 235 -136 338 -172 66 -23
93 -26 202 -27 113 -1 131 1 180 23 67 31 149 82 149 93 0 4 6 8 14 8 8 0 16
7 20 15 7 18 6 18 -69 0 -90 -22 -243 -19 -312 5 -32 11 -64 20 -73 20 -8 1
-33 9 -55 20 -22 11 -44 19 -50 20 -22 0 -233 109 -270 139 -11 9 -30 22 -42
29 -13 6 -33 18 -45 25 -13 6 -29 20 -36 30 -7 9 -17 17 -22 17 -6 0 -18 7
-27 15 -10 8 -47 37 -83 65 -134 106 -261 220 -393 352 -49 48 -93 88 -98 88
-5 0 -9 4 -9 9 0 5 -24 33 -53 62 -62 63 -139 148 -217 239 -30 35 -65 74 -77
86 -13 12 -23 26 -23 32 0 5 -6 12 -13 15 -8 3 -31 30 -51 61 -20 31 -41 56
-47 56 -5 0 -9 5 -9 10 0 6 -10 25 -22 43 -46 67 -55 83 -72 127 -19 48 -49
164 -84 320 -12 52 -29 127 -38 165 -8 39 -20 97 -25 130 -5 33 -14 74 -19 91
-6 17 -14 59 -20 95 -5 35 -14 84 -20 109 -6 25 -14 70 -19 100 -9 56 -32 174
-57 290 -8 36 -18 97 -24 135 -5 39 -14 90 -20 115 -6 25 -15 75 -20 112 -5
38 -16 94 -24 125 -8 32 -17 84 -21 116 -5 42 -11 57 -22 57 -13 0 -14 -10
-10 -62z"/>
<path d="M6468 4473 c6 -2 18 -2 25 0 6 3 1 5 -13 5 -14 0 -19 -2 -12 -5z"/>
<path d="M6555 4445 c22 -9 72 -17 110 -19 39 -2 50 -1 25 1 -24 2 -49 8 -55
13 -5 4 -35 11 -65 14 l-55 6 40 -15z"/>
<path d="M2810 4441 c0 -4 12 -21 26 -37 14 -16 52 -61 85 -101 53 -64 59 -76
59 -117 0 -58 15 -60 23 -3 11 77 9 79 -158 234 -19 18 -35 29 -35 24z"/>
<path d="M5478 2313 c18 -2 45 -2 60 0 15 2 0 4 -33 4 -33 0 -45 -2 -27 -4z"/>
<path d="M5500 1835 c0 -26 26 -46 39 -29 31 44 121 44 121 0 0 -23 -43 -76
-62 -76 -9 0 -9 -3 0 -12 8 -8 22 -7 56 6 24 9 55 14 67 11 33 -7 45 3 62 52
24 70 17 73 -143 73 l-140 0 0 -25z"/>
<path d="M9260 585 l0 -325 70 0 c63 0 70 2 70 20 0 16 -7 20 -35 20 l-35 0 0
305 0 305 -35 0 -35 0 0 -325z"/>
<path d="M9457 848 c2 -35 12 -133 23 -218 10 -85 21 -189 24 -230 9 -128 13
-140 51 -140 38 0 39 2 56 173 6 61 19 182 30 267 26 210 26 210 -10 210 -17
0 -32 -4 -35 -9 -3 -5 -11 -87 -17 -182 -10 -164 -25 -280 -28 -219 -10 177
-21 333 -27 368 -6 39 -9 42 -38 42 l-32 0 3 -62z"/>
<path d="M9743 900 c-32 -13 -43 -41 -43 -107 0 -63 37 -158 65 -169 8 -3 15
-12 15 -20 0 -7 8 -18 18 -23 30 -16 52 -98 52 -193 0 -85 -1 -88 -24 -94 -14
-3 -30 -3 -35 1 -7 4 -11 52 -11 126 l0 119 -40 0 -40 0 0 -118 c0 -111 1
-120 23 -140 19 -18 35 -22 94 -22 93 0 103 13 103 135 0 116 -14 164 -59 211
-75 78 -82 94 -79 186 l3 83 30 0 30 0 3 -92 3 -93 34 0 35 0 0 80 c0 96 -12
126 -52 134 -42 8 -99 6 -125 -4z"/>
</g>
</svg>
